<?xml version="1.0" encoding="UTF-8"?>
<!DOCTYPE svg PUBLIC "-//W3C//DTD SVG 1.1//EN" "http://www.w3.org/Graphics/SVG/1.1/DTD/svg11.dtd">
<!-- Creator: CorelDRAW -->
<svg xmlns="http://www.w3.org/2000/svg" xml:space="preserve" width="512px" height="512px" version="1.1" style="shape-rendering:geometricPrecision; text-rendering:geometricPrecision; image-rendering:optimizeQuality; fill-rule:evenodd; clip-rule:evenodd"
viewBox="0 0 512 512"
 xmlns:xlink="http://www.w3.org/1999/xlink"
 xmlns:xodm="http://www.corel.com/coreldraw/odm/2003">
 <defs>
  <style type="text/css">
   <![CDATA[
    .fil0 {fill:url(#id0)}
   ]]>
  </style>
  <linearGradient id="id0" gradientUnits="userSpaceOnUse" x1="256" y1="511.98" x2="256" y2="0.02">
   <stop offset="0" style="stop-opacity:1; stop-color:#1AA8DC"/>
   <stop offset="0.490196" style="stop-opacity:1; stop-color:#AE3B89"/>
   <stop offset="1" style="stop-opacity:1; stop-color:#F26270"/>
  </linearGradient>
 </defs>
 <g id="Layer_x0020_1">
  <metadata id="CorelCorpID_0Corel-Layer"/>
  <path class="fil0" d="M229.35 462.02c-93.36,-11.97 -167.4,-86.01 -179.37,-179.37l40.87 0c14.7,0 26.65,-11.95 26.65,-26.65 0,-14.7 -11.95,-26.65 -26.65,-26.65l-40.87 0c11.97,-93.36 86.01,-167.4 179.37,-179.37l0 40.87c0,14.7 11.95,26.65 26.65,26.65 14.7,0 26.65,-11.95 26.65,-26.65l0 -40.87c93.36,11.97 167.4,86.01 179.37,179.37l-40.87 0c-14.7,0 -26.65,11.95 -26.65,26.65 0,14.7 11.95,26.65 26.65,26.65l40.87 0c-11.97,93.36 -86.01,167.4 -179.37,179.37l0 -40.87c0,-14.7 -11.95,-26.65 -26.65,-26.65 -14.7,0 -26.65,11.95 -26.65,26.65l0 40.87zm-138.5 -186.37l-71.18 0c-10.84,0 -19.65,-8.81 -19.65,-19.65 0,-10.84 8.81,-19.65 19.65,-19.65l71.18 0c10.84,0 19.65,8.81 19.65,19.65 0,10.84 -8.81,19.65 -19.65,19.65zm165.15 236.33l0 0c-10.84,0 -19.65,-8.81 -19.65,-19.65l0 -71.18c0,-10.84 8.81,-19.65 19.65,-19.65 10.84,0 19.65,8.81 19.65,19.65l0 71.18c0,10.84 -8.81,19.65 -19.65,19.65zm236.33 -236.33l-71.18 0c-10.84,0 -19.65,-8.81 -19.65,-19.65 0,-10.84 8.81,-19.65 19.65,-19.65l71.18 0c10.84,0 19.65,8.81 19.65,19.65 0,10.84 -8.81,19.65 -19.65,19.65zm-236.33 -165.14c-10.83,0 -19.65,-8.82 -19.65,-19.66l0 -71.18c0,-10.84 8.81,-19.65 19.65,-19.65 10.83,0 19.65,8.81 19.65,19.65l0 71.18c0,10.84 -8.81,19.66 -19.65,19.66zm0 197.35c-28.59,0 -51.86,-23.27 -51.86,-51.86 0,-28.59 23.27,-51.86 51.86,-51.86 28.59,0 51.86,23.27 51.86,51.86 0,28.59 -23.27,51.86 -51.86,51.86zm0 -89.72c-20.87,0 -37.86,16.99 -37.86,37.86 0,20.87 16.99,37.86 37.86,37.86 20.87,0 37.86,-16.99 37.86,-37.86 0,-20.87 -16.99,-37.86 -37.86,-37.86zm15.63 164.95l-31.26 0c-3.87,0 -7,-3.14 -7,-7l0 -27.61c-9.46,-2.29 -18.42,-6.01 -26.75,-11.09l-19.53 19.53c-1.31,1.31 -3.09,2.05 -4.95,2.05 -1.86,0 -3.64,-0.74 -4.95,-2.05l-22.11 -22.11c-1.31,-1.31 -2.05,-3.09 -2.05,-4.95 0,-1.85 0.74,-3.63 2.05,-4.95l19.53 -19.53c-5.08,-8.33 -8.79,-17.29 -11.09,-26.75l-27.61 0c-3.86,0 -7,-3.13 -7,-7l0 -31.26c0,-3.87 3.14,-7 7,-7l27.61 0c2.3,-9.46 6.01,-18.42 11.09,-26.75l-19.53 -19.53c-2.73,-2.73 -2.73,-7.16 0,-9.9l22.11 -22.1c2.73,-2.74 7.16,-2.74 9.9,0l19.53 19.52c8.33,-5.08 17.29,-8.79 26.75,-11.09l0 -27.6c0,-3.87 3.13,-7 7,-7l31.26 0c3.87,0 7,3.13 7,7l0 27.6c9.46,2.3 18.42,6.01 26.75,11.09l19.53 -19.52c1.31,-1.32 3.09,-2.05 4.95,-2.05 1.85,0 3.64,0.73 4.95,2.05l22.11 22.1c1.31,1.32 2.05,3.1 2.05,4.95 0,1.86 -0.74,3.64 -2.05,4.95l-19.53 19.53c5.08,8.33 8.79,17.29 11.09,26.75l27.61 0c3.86,0 6.99,3.14 6.99,7l0 31.27c0,3.86 -3.13,7 -6.99,7l-27.61 0c-2.3,9.45 -6.01,18.41 -11.09,26.75l19.53 19.52c2.73,2.74 2.73,7.17 0,9.9l-22.11 22.11c-1.31,1.31 -3.09,2.05 -4.95,2.05 -1.86,0 -3.64,-0.74 -4.95,-2.05l-19.53 -19.53c-8.33,5.08 -17.29,8.79 -26.75,11.09l0 27.61c0,3.86 -3.13,7 -7,7zm-24.26 -14l17.26 0 0 -26.28c0,-3.39 2.43,-6.3 5.77,-6.89 11.53,-2.07 22.27,-6.52 31.92,-13.23 2.78,-1.94 6.55,-1.61 8.95,0.79l18.59 18.59 12.21 -12.21 -18.59 -18.59c-2.4,-2.39 -2.73,-6.16 -0.79,-8.95 6.71,-9.65 11.17,-20.39 13.23,-31.92 0.59,-3.33 3.5,-5.77 6.89,-5.77l26.28 0 0 -17.26 -26.28 0c-3.39,0 -6.3,-2.43 -6.89,-5.77 -2.07,-11.53 -6.52,-22.27 -13.23,-31.92 -1.94,-2.78 -1.61,-6.55 0.79,-8.95l18.59 -18.59 -12.21 -12.21 -18.59 18.59c-2.4,2.4 -6.17,2.73 -8.95,0.8 -9.65,-6.72 -20.39,-11.17 -31.92,-13.24 -3.34,-0.6 -5.77,-3.5 -5.77,-6.89l0 -26.28 -17.26 0 0 26.28c0,3.39 -2.43,6.3 -5.77,6.89 -11.53,2.07 -22.27,6.52 -31.92,13.24 -2.78,1.93 -6.55,1.6 -8.95,-0.8l-18.59 -18.59 -12.21 12.21 18.59 18.59c2.4,2.4 2.73,6.17 0.8,8.95 -6.72,9.65 -11.17,20.39 -13.23,31.92 -0.6,3.34 -3.5,5.76 -6.89,5.76l-26.29 0 0 17.27 26.29 0c3.39,0 6.29,2.43 6.89,5.77 2.06,11.53 6.51,22.27 13.23,31.92 1.94,2.78 1.6,6.55 -0.8,8.95l-18.59 18.59 12.21 12.21 18.59 -18.59c2.4,-2.4 6.17,-2.74 8.95,-0.8 9.65,6.72 20.39,11.17 31.92,13.24 3.34,0.59 5.77,3.5 5.77,6.89l0 26.28 0 0z"/>
 </g>
</svg>
