<?xml version="1.0" encoding="utf-8"?>
<!-- Generator: Adobe Illustrator 23.0.3, SVG Export Plug-In . SVG Version: 6.00 Build 0)  -->
<svg version="1.1" id="Layer_1" xmlns="http://www.w3.org/2000/svg" xmlns:xlink="http://www.w3.org/1999/xlink" x="0px" y="0px"
	 viewBox="0 0 512 512" style="enable-background:new 0 0 512 512;" xml:space="preserve">
<style type="text/css">
	.st0{fill:#36B358;stroke:#1D1D1B;stroke-width:13;stroke-miterlimit:10;}
	.st1{fill:#299944;stroke:#1D1D1B;stroke-width:13;stroke-linejoin:bevel;stroke-miterlimit:10;}
	.st2{fill:#F43B3F;}
	.st3{fill:#BDD01E;}
	.st4{fill:#00C783;}
	.st5{fill:#36B358;}
	.st6{fill:#0096E6;}
	.st7{fill:#FF61F6;}
	.st8{fill:#EC5E30;}
	.st9{fill:#89D3FF;}
	.st10{fill:#FF70BD;}
	.st11{fill:#393687;}
	.st12{fill:#E7ADFB;}
	.st13{fill:#F8A3FF;}
	.st14{fill:#FF9A00;}
	.st15{fill:#00AF73;}
	.st16{fill:#5964B6;}
	.st17{fill:#1D1D1B;}
</style>
<path class="st0" d="M439,215.64v220.84c0,23.14-18.76,41.91-41.91,41.91H114.91c-23.14,0-41.91-18.76-41.91-41.91V75.52
	c0-23.14,18.76-41.91,41.91-41.91h139.98c0.73,0,1.31,0.59,1.31,1.31V171.2c0,23.14,18.76,41.91,41.91,41.91h138.36
	c0.67,0,1.31,0.27,1.79,0.74l0,0C438.73,214.33,439,214.97,439,215.64z"/>
<path class="st1" d="M437.52,213.11H301.65c-25.11,0-45.45-20.33-45.45-45.45V33.61h1.82L437.52,213.11z"/>
<g>
	<g>
		<path class="st17" d="M181.97,388.67l-15.25-23.73l-13.84,23.73h-15.96l22.22-35.55l-22.52-34.94h16.26l15.25,23.63l13.74-23.63
			h15.96l-22.12,35.45l22.52,35.04H181.97z"/>
		<path class="st17" d="M223.18,377.46h23.23v11.21h-37.37v-70.49h14.14V377.46z"/>
		<path class="st17" d="M266.45,386.86c-3.94-1.68-7.05-4.11-9.34-7.27c-2.29-3.16-3.47-6.9-3.53-11.21h15.15
			c0.2,2.9,1.23,5.19,3.08,6.87c1.85,1.68,4.39,2.53,7.63,2.53c3.3,0,5.89-0.79,7.78-2.37c1.88-1.58,2.83-3.65,2.83-6.21
			c0-2.09-0.64-3.8-1.92-5.15c-1.28-1.35-2.88-2.41-4.8-3.18c-1.92-0.77-4.56-1.63-7.93-2.58c-4.58-1.35-8.3-2.68-11.16-3.99
			c-2.86-1.31-5.32-3.3-7.37-5.96c-2.05-2.66-3.08-6.21-3.08-10.66c0-4.17,1.04-7.81,3.13-10.91c2.09-3.1,5.01-5.47,8.79-7.12
			c3.77-1.65,8.08-2.47,12.93-2.47c7.27,0,13.18,1.77,17.72,5.3c4.54,3.53,7.05,8.47,7.52,14.79h-15.55
			c-0.14-2.42-1.16-4.43-3.08-6.01c-1.92-1.58-4.46-2.37-7.63-2.37c-2.76,0-4.97,0.71-6.61,2.12c-1.65,1.41-2.47,3.47-2.47,6.16
			c0,1.89,0.62,3.45,1.87,4.7c1.25,1.25,2.79,2.26,4.65,3.03c1.85,0.78,4.46,1.67,7.83,2.68c4.58,1.35,8.31,2.69,11.21,4.04
			c2.89,1.35,5.39,3.37,7.47,6.06c2.09,2.69,3.13,6.23,3.13,10.6c0,3.77-0.98,7.27-2.93,10.5c-1.95,3.23-4.81,5.81-8.58,7.73
			c-3.77,1.92-8.25,2.88-13.43,2.88C274.82,389.38,270.39,388.54,266.45,386.86z"/>
		<path class="st17" d="M359.11,388.67l-15.25-23.73l-13.84,23.73h-15.96l22.22-35.55l-22.52-34.94h16.26l15.25,23.63l13.74-23.63
			h15.96l-22.12,35.45l22.52,35.04H359.11z"/>
	</g>
</g>
</svg>
