<?xml version="1.0" encoding="UTF-8"?>
<!DOCTYPE svg PUBLIC "-//W3C//DTD SVG 1.1//EN" "http://www.w3.org/Graphics/SVG/1.1/DTD/svg11.dtd">
<!-- Creator: CorelDRAW -->
<svg xmlns="http://www.w3.org/2000/svg" xml:space="preserve" width="180.622mm" height="180.622mm" version="1.1" style="shape-rendering:geometricPrecision; text-rendering:geometricPrecision; image-rendering:optimizeQuality; fill-rule:evenodd; clip-rule:evenodd"
viewBox="0 0 18062 18062"
 xmlns:xlink="http://www.w3.org/1999/xlink">
 <defs>
  <style type="text/css">
   <![CDATA[
    .fil1 {fill:#2B91E3}
    .fil2 {fill:#303C4D}
    .fil6 {fill:#354356}
    .fil0 {fill:#425269}
    .fil4 {fill:#7B432A}
    .fil5 {fill:#E6B795}
    .fil3 {fill:#FFCBA6}
   ]]>
  </style>
 </defs>
 <g id="Layer_x0020_1">
  <metadata id="CorelCorpID_0Corel-Layer"/>
  <g id="_497184528">
   <path class="fil0" d="M9031 10494c0,0 4,0 0,0zm7439 7566l-14881 0c-138,0 -247,-109 -247,-247l0 -2568c0,-1382 1030,-2578 2398,-2782 0,0 4,0 4,0 1355,-183 2073,-397 2456,-745 -8,7 -16,14 -25,22 88,-64 208,-64 295,3l2555 1965 2901 -1919 72 41 -6 -5c407,289 1108,477 2326,638 0,0 4,0 4,0 1368,204 2398,1400 2398,2782l0 2568c-3,138 -113,247 -250,247zm-10270 -6343c7,-5 13,-11 19,-17 -6,6 -12,12 -19,17zm485 -2203c1,-36 1,-73 1,-109 0,-138 109,-247 246,-247 505,0 3894,7 4201,7 138,0 247,109 247,247l0 88c-6,6 -12,12 -17,17 -632,632 -1461,977 -2332,977 -868,0 -1700,-345 -2338,-973 -3,-2 -5,-5 -8,-7zm4765 1354c1,6 2,12 3,17 -1,-5 -2,-11 -3,-17zm495 923c-18,-14 -29,-23 0,0z"/>
   <path class="fil1" d="M8424 15522l-366 -779c-56,-123 -3,-271 120,-328 16,-7 1644,-205 1676,46 123,56 176,205 119,328l-346 741 416 2530 -1534 0 379 -2326 -379 2326 -500 0 415 -2538z"/>
   <path class="fil2" d="M4135 18060l0 -2666c0,-138 110,-247 247,-247 138,0 247,109 247,247l0 2666 -494 0z"/>
   <path class="fil2" d="M13426 18060l0 -2666c0,-138 109,-247 247,-247 137,0 247,109 247,247l0 2666 -494 0z"/>
   <path class="fil3" d="M9031 10494c-868,0 -1700,-345 -2338,-973 -671,-660 -1094,-1591 -1231,-2698 -473,-177 -812,-572 -900,-1062 -95,-543 124,-1072 579,-1379 204,-138 483,-434 638,-1041 18,-141 141,-888 790,-1326 540,-363 1277,-405 2187,-127 0,0 0,0 0,0 243,78 296,78 540,0 910,-278 1647,-236 2186,124 653,437 773,1185 790,1326 152,603 431,899 639,1040 455,307 677,833 578,1380 -88,493 -426,888 -899,1061 -138,1111 -561,2039 -1227,2698 -632,632 -1461,977 -2332,977 4,0 0,0 0,0z"/>
   <path class="fil4" d="M5851 3426c17,-141 92,-762 741,-1199 539,-364 1233,-438 2143,-159 243,77 330,60 573,-18 910,-279 1506,-254 2046,106 653,437 785,1138 803,1279 67,269 93,439 194,599l182 553c0,137 110,246 247,246 138,0 247,-109 247,-243l0 -2141c0,-7 0,-10 0,-14 -31,-593 -384,-1132 -1019,-1562 -543,-371 -1270,-646 -2095,-798 -695,-130 -1527,-84 -2286,124 -747,204 -1329,536 -1643,938 -522,120 -896,356 -1111,709 -417,677 -159,1580 49,2303 49,177 99,342 127,480 28,134 159,219 293,190 173,-36 458,-1193 509,-1393z"/>
   <path class="fil3" d="M9031 10494c0,0 4,0 0,0zm-2581 1390l2558 1905 2593 -1896c106,-81 240,-214 325,-104l72 41c-97,-68 -177,-141 -244,-221 -346,-415 -373,-1074 -374,-2109 -6,6 -12,12 -17,17 -632,632 -1461,977 -2332,977 -868,0 -1700,-345 -2338,-973 -3,-2 -5,-5 -8,-7 -1,671 49,1743 -510,2226 88,-64 188,77 275,144z"/>
   <path class="fil5" d="M9031 10494c0,0 4,0 0,0zm0 279c-860,0 -1687,-320 -2345,-904 0,-126 -1,-246 -1,-355 3,2 5,5 8,7 638,628 1470,973 2338,973 871,0 1700,-345 2332,-977 5,-5 11,-11 17,-17 0,124 1,242 2,356 -653,593 -1482,917 -2351,917 4,0 0,0 0,0z"/>
   <path class="fil6" d="M10930 14924c90,0 177,-47 220,-130l1354 -2467c69,-123 22,-274 -101,-343 -208,-118 -565,-429 -762,-278l-2770 2131c-75,57 -112,151 -93,242 18,90 79,169 169,198l1907 632c22,11 47,15 76,15z"/>
   <path class="fil6" d="M7121 14924c-90,0 -177,-47 -220,-130l-1354 -2467c-69,-123 -22,-274 101,-343 208,-118 564,-429 762,-278l2769 2131c76,57 112,151 94,242 -18,90 -79,169 -170,198l-1906 632c-22,11 -47,15 -76,15z"/>
  </g>
 </g>
</svg>
