<?xml version="1.0" encoding="UTF-8" standalone="no"?> <svg xmlns="http://www.w3.org/2000/svg" xmlns:xlink="http://www.w3.org/1999/xlink" viewBox="0 0 64 64"><defs><style>.cls-1{fill:url(#linear-gradient);}.cls-2{fill:url(#linear-gradient-2);}</style><linearGradient id="linear-gradient" x1="2.86" y1="32.11" x2="26.73" y2="32.11" gradientUnits="userSpaceOnUse"><stop offset="0" stop-color="#f62c84"/><stop offset="0.23" stop-color="#e1309c"/><stop offset="0.72" stop-color="#ab38d9"/><stop offset="1" stop-color="#8a3eff"/></linearGradient><linearGradient id="linear-gradient-2" x1="16.09" y1="32.11" x2="61.14" y2="32.11" xlink:href="#linear-gradient"/></defs><g id="Layer_67" data-name="Layer 67"><path class="cls-1" d="M22.23,61.11H14.37A11.53,11.53,0,0,1,2.86,49.59v-35A11.52,11.52,0,0,1,14.37,3.11h7.86a4.5,4.5,0,1,1,0,9H14.37a2.52,2.52,0,0,0-2.51,2.51v35a2.52,2.52,0,0,0,2.51,2.52h7.86a4.5,4.5,0,1,1,0,9Zm-7.86-56a9.53,9.53,0,0,0-9.51,9.51v35a9.53,9.53,0,0,0,9.51,9.52h7.86a2.5,2.5,0,1,0,0-5H14.37a4.52,4.52,0,0,1-4.51-4.52v-35a4.51,4.51,0,0,1,4.51-4.51h7.86a2.5,2.5,0,1,0,0-5Z"/><path class="cls-2" d="M33.11,49.07a5,5,0,0,1-3.52-1.44l-12-11.9a5,5,0,0,1,.07-7.18L29.57,16.61a5,5,0,1,1,7.07,7.07l-3.5,3.5h23a5,5,0,0,1,0,10H33.29l3.35,3.36a5,5,0,0,1-3.53,8.53Zm0-31.93A3,3,0,0,0,31,18L19,30A3,3,0,0,0,19,34.31l12,11.9A3,3,0,0,0,35.23,42l-5.07-5.06A1,1,0,0,1,30,35.8a1,1,0,0,1,.92-.62H56.14a3,3,0,0,0,0-6H30.73a1,1,0,0,1-.93-.62A1,1,0,0,1,30,27.47l5.21-5.21a3,3,0,0,0,0-4.24A3,3,0,0,0,33.11,17.14Z"/></g></svg>