<?xml version="1.0" encoding="UTF-8"?>
<!DOCTYPE svg PUBLIC "-//W3C//DTD SVG 1.1//EN" "http://www.w3.org/Graphics/SVG/1.1/DTD/svg11.dtd">
<!-- Creator: CorelDRAW -->
<svg xmlns="http://www.w3.org/2000/svg" xml:space="preserve" width="1.70666in" height="1.70666in" version="1.1" style="shape-rendering:geometricPrecision; text-rendering:geometricPrecision; image-rendering:optimizeQuality; fill-rule:evenodd; clip-rule:evenodd"
viewBox="0 0 1707 1707"
 xmlns:xlink="http://www.w3.org/1999/xlink">
 <defs>
  <style type="text/css">
   <![CDATA[
    .fil0 {fill:url(#id0)}
   ]]>
  </style>
  <linearGradient id="id0" gradientUnits="userSpaceOnUse" x1="853.331" y1="0.00393701" x2="853.331" y2="1706.66">
   <stop offset="0" style="stop-opacity:1; stop-color:#5CC6D0"/>
   <stop offset="0.490196" style="stop-opacity:1; stop-color:#A53692"/>
   <stop offset="1" style="stop-opacity:1; stop-color:#F06277"/>
  </linearGradient>
 </defs>
 <g id="Layer_x0020_1">
  <metadata id="CorelCorpID_0Corel-Layer"/>
  <path class="fil0" d="M1057 1480c-13,0 -24,-10 -24,-23l0 -20c0,-13 11,-24 24,-24 13,0 23,11 23,24l0 20c0,13 -10,23 -23,23zm63 227l-893 0c-47,0 -87,-38 -87,-84l0 -1540c0,-45 40,-83 87,-83l893 0c46,0 83,37 83,83l0 1158 174 284c4,7 5,16 0,24 -4,6 -12,11 -20,11l-154 0 0 63c0,46 -37,84 -83,84zm46 -438c-5,-4 -8,-9 -9,-15l-103 -169 -253 428 514 0 -149 -244zm-9 -105l0 -1081c0,-20 -16,-36 -37,-36l-893 0c-22,0 -40,17 -40,36l0 1540c0,20 18,37 40,37l893 0c21,0 37,-16 37,-37l0 -63 -397 0c-8,0 -16,-4 -20,-12 -4,-7 -4,-16 0,-23l293 -497c5,-7 12,-11 20,-11 0,0 0,0 1,0 8,0 15,4 20,11l83 136zm-104 -924c-49,0 -90,-40 -90,-90 0,-50 41,-90 90,-90 53,0 94,40 94,90 0,50 -41,90 -94,90zm0 -133c-24,0 -43,19 -43,43 0,24 19,43 43,43 27,0 47,-19 47,-43 0,-24 -20,-43 -47,-43zm-763 133c-50,0 -90,-40 -90,-90 0,-50 40,-90 90,-90 52,0 93,40 93,90 0,50 -41,90 -93,90zm0 -133c-24,0 -43,19 -43,43 0,24 19,43 43,43 26,0 47,-19 47,-43 0,-24 -21,-43 -47,-43zm0 1540c-50,0 -90,-41 -90,-90 0,-50 40,-90 90,-90 52,0 93,39 93,90 0,50 -41,90 -93,90zm0 -134c-24,0 -43,20 -43,44 0,24 19,43 43,43 26,0 47,-19 47,-43 0,-25 -21,-44 -47,-44zm360 -738c-25,-4 -48,-13 -68,-28l-37 38c29,24 65,39 105,44l0 -54zm-101 -61c-14,-19 -24,-42 -27,-67l-54 0c4,39 20,75 44,105l37 -38zm-27 -114c3,-25 13,-48 27,-69l-37 -37c-24,30 -39,66 -44,106l54 0zm59 -102c20,-16 44,-26 69,-30l0 -50c-39,4 -76,20 -105,44l36 36zm116 -30c25,4 49,14 69,30l36 -36c-30,-24 -66,-40 -105,-44l0 50zm101 64c14,20 23,43 27,68l54 0c-5,-40 -20,-76 -44,-105l-37 37zm27 115c-4,25 -13,48 -27,67l37 38c24,-30 39,-66 44,-105l-54 0zm-60 100c-20,15 -43,24 -68,28l0 54c39,-5 76,-20 105,-44l-37 -38zm-92 -234c-29,0 -56,12 -75,32 0,0 -1,1 -1,1 -1,1 -1,1 -1,1 -18,20 -29,47 -29,76l0 0c0,61 46,107 106,107 61,0 107,-46 107,-107 0,-61 -47,-110 -107,-110zm-23 363c-52,-5 -100,-26 -138,-58l-36 36c48,40 108,67 174,72l0 -50zm-171 -91c-32,-38 -53,-86 -58,-138l-50 0c5,66 31,126 72,174l36 -36zm-58 -185c5,-52 26,-100 58,-139l-36 -35c-41,47 -67,108 -72,174l50 0zm91 -172c38,-31 86,-52 138,-57l0 -50c-66,5 -126,31 -174,72l36 35zm185 -57c52,5 100,26 138,58l36 -36c-48,-41 -108,-67 -174,-72l0 50zm171 91c32,38 53,86 58,138l50 0c-5,-66 -32,-126 -72,-174l-36 36zm58 185c-5,52 -26,100 -58,138l36 35c40,-47 67,-107 72,-173l-50 0zm-91 171c-38,32 -86,53 -138,58l0 50c66,-5 126,-32 174,-73l-36 -35zm-185 155c-79,-6 -151,-37 -207,-86l-56 56c-5,5 -11,7 -17,7 -6,0 -12,-2 -16,-7 -9,-9 -9,-24 0,-33l56 -56c-49,-56 -81,-128 -86,-207l-61 0c-13,0 -23,-11 -23,-24 0,-13 10,-23 23,-23l61 0c5,-79 37,-151 86,-207l-56 -57c-9,-9 -9,-24 0,-33 9,-9 24,-9 33,0l56 57c56,-49 128,-81 207,-86l0 -61c0,-13 10,-23 23,-23 13,0 24,10 24,23l0 61c79,5 151,37 207,86l56 -57c9,-9 24,-9 33,0 9,9 9,24 0,33l-56 57c49,56 80,128 86,207l60 0c13,0 24,10 24,23 0,13 -11,24 -24,24l-60 0c-6,79 -37,150 -86,206l56 57c9,9 9,24 0,33 -4,5 -10,7 -16,7 -6,0 -12,-2 -17,-7l-56 -57c-56,50 -128,81 -207,87l0 60c0,13 -11,24 -24,24 -13,0 -23,-11 -23,-24l0 -60zm-207 370c-13,0 -23,-10 -23,-23l0 -23c0,-13 10,-24 23,-24 13,0 24,11 24,24l0 23c0,13 -11,23 -24,23zm134 0c-13,0 -24,-10 -24,-23l0 -23c0,-13 11,-24 24,-24 13,0 23,11 23,24l0 23c0,13 -10,23 -23,23zm-67 -100c-13,0 -23,-10 -23,-23l0 -23c0,-13 10,-24 23,-24 13,0 23,11 23,24l0 23c0,13 -10,23 -23,23zm167 167l-334 0c-13,0 -23,-10 -23,-23l0 -167c0,-5 2,-11 5,-15l70 -86c5,-6 11,-9 18,-9l194 0c7,0 13,3 18,9l70 86c3,4 5,10 5,15l0 167c0,13 -10,23 -23,23zm-310 -47l286 0 0 -135 -57 -71 -171 0 -58 71 0 135zm983 -660c-4,0 -8,-1 -12,-3 -11,-6 -15,-20 -8,-32l67 -116 -81 -2c-8,0 -15,-4 -19,-11 -4,-7 -5,-15 -2,-22l73 -167c6,-11 19,-17 31,-12 12,6 17,19 12,31l-59 135 85 2c8,1 16,5 20,12 4,8 4,16 0,23l-87 150c-4,8 -12,12 -20,12zm-63 334c-11,0 -20,-7 -23,-17 -3,-13 4,-26 17,-29l129 -36 -57 -59c-5,-5 -7,-13 -6,-21 2,-8 7,-14 15,-17l173 -66c12,-5 26,1 30,13 5,12 -1,26 -13,30l-141 54 59 61c6,6 8,15 6,23 -3,8 -9,14 -17,16l-166 47c-2,0 -4,1 -6,1zm-230 353c-13,0 -24,-10 -24,-23l0 -170c0,-13 11,-24 24,-24 13,0 23,11 23,24l0 170c0,13 -10,23 -23,23z"/>
 </g>
</svg>
