<?xml version="1.0" encoding="UTF-8" standalone="no"?> <svg xmlns="http://www.w3.org/2000/svg" data-name="Layer 1" viewBox="0 0 32 32"><circle cx="8" cy="8" r="7.5" fill="#e5303e"/><path fill="#b72732" d="M1.5,8A7.49442,7.49442,0,0,1,8.5.52521C8.334.51422,8.16882.5,8,.5a7.5,7.5,0,0,0,0,15c.16882,0,.334-.01422.5-.02521A7.49442,7.49442,0,0,1,1.5,8Z"/><circle cx="8" cy="8" r="5.5" fill="#fff"/><path fill="#e0e0e2" d="M3.5,8a5.49864,5.49864,0,0,1,5-5.47479C8.33508,2.51031,8.16882,2.5,8,2.5a5.5,5.5,0,0,0,0,11c.16882,0,.33508-.01031.5-.02521A5.49868,5.49868,0,0,1,3.5,8Z"/><path fill="#3c3b41" d="M10.5 8.5H9a.5.5 0 0 1 0-1h1.5a.5.5 0 0 1 0 1zM7.874 7.51221a.49971.49971 0 0 1-.5-.5V4.87256a.5.5 0 1 1 1 0V7.01221A.49971.49971 0 0 1 7.874 7.51221z"/><circle cx="8" cy="8" r="1" fill="#e5303e" transform="rotate(-37.84 8 8)"/><path fill="#4ebaea" d="M3.476,24.5h1a1,1,0,0,1,1,1v6a0,0,0,0,1,0,0h-3a0,0,0,0,1,0,0v-6A1,1,0,0,1,3.476,24.5Z"/><path fill="#2e99d4" d="M4.476,24.5h-1a1,1,0,0,0-1,1v6h1v-6A1,1,0,0,1,4.476,24.5Z"/><path fill="#fdd402" d="M13.476,31.5h-3v-9a1,1,0,0,1,1-1h1a1,1,0,0,1,1,1Z"/><path fill="#fbbf13" d="M12.476,21.5h-1a1,1,0,0,0-1,1v9h1v-9A1,1,0,0,1,12.476,21.5Z"/><path fill="#37b678" d="M19.476,17.5h1a1,1,0,0,1,1,1v13a0,0,0,0,1,0,0h-3a0,0,0,0,1,0,0v-13A1,1,0,0,1,19.476,17.5Z"/><path fill="#00a653" d="M20.476,17.5h-1a1,1,0,0,0-1,1v13h1v-13A1,1,0,0,1,20.476,17.5Z"/><path fill="#3f6db4" d="M27.476,10.5h1a1,1,0,0,1,1,1v20a0,0,0,0,1,0,0h-3a0,0,0,0,1,0,0v-20A1,1,0,0,1,27.476,10.5Z"/><path fill="#1f53a4" d="M28.476,10.5h-1a1,1,0,0,0-1,1v20h1v-20A1,1,0,0,1,28.476,10.5Z"/><path fill="#58565d" d="M2.47559,22a.49994.49994,0,0,1-.11084-.9873,40.44361,40.44361,0,0,0,15.80908-6.91113A38.9502,38.9502,0,0,0,29.0332,1.26758a.50015.50015,0,1,1,.88574.46484,39.96836,39.96836,0,0,1-11.14062,13.166A41.41209,41.41209,0,0,1,2.5874,21.9873.49109.49109,0,0,1,2.47559,22Z"/><path fill="#58565d" d="M30.5,5a.50039.50039,0,0,1-.47412-.34082l-.8623-2.56689L26.666,2.97168a.5.5,0,1,1-.332-.94336L29.31006.98047a.50061.50061,0,0,1,.64014.3125l1.02393,3.04785A.49978.49978,0,0,1,30.5,5Z"/></svg>