<?xml version="1.0" encoding="UTF-8"?>
<!DOCTYPE svg PUBLIC "-//W3C//DTD SVG 1.1//EN" "http://www.w3.org/Graphics/SVG/1.1/DTD/svg11.dtd">
<!-- Creator: CorelDRAW -->
<svg xmlns="http://www.w3.org/2000/svg" xml:space="preserve" width="1.70666in" height="1.70666in" style="shape-rendering:geometricPrecision; text-rendering:geometricPrecision; image-rendering:optimizeQuality; fill-rule:evenodd; clip-rule:evenodd"
viewBox="0 0 1.70666 1.70666"
 xmlns:xlink="http://www.w3.org/1999/xlink">
 <defs>
  <style type="text/css">
   <![CDATA[
    .fil0 {fill:#47D5C5}
    .fil2 {fill:#5A45CE}
    .fil1 {fill:#A948D6}
   ]]>
  </style>
 </defs>
 <g id="Layer_x0020_1">
  <metadata id="CorelCorpID_0Corel-Layer"/>
  <path class="fil0" d="M0.445319 1.51954l3.93701e-006 -0.283004c0,-0.0119646 0.00969685,-0.0216654 0.0216654,-0.0216654l0.154665 0c0.0119685,0 0.0216654,0.00970079 0.0216654,0.0216654l0 0.283004 -0.198 0zm0.521831 0l0 -0.490839c0,-0.0119685 0.00969685,-0.0216654 0.0216654,-0.0216654l0.154669 0c0.0119646,0 0.0216654,0.00969685 0.0216654,0.0216654l0 0.490839 -0.198 0zm-0.260913 0l0 -0.374843c0,-0.0119646 0.00970079,-0.0216654 0.0216654,-0.0216654l0.154669 0c0.0119646,0 0.0216654,0.00970079 0.0216654,0.0216654l0 0.374843 -0.198 0z"/>
  <path class="fil1" d="M0.577327 1.09542c-0.00748819,0 -0.0147717,-0.00388583 -0.0187835,-0.0108386 -0.00598031,-0.0103622 -0.00242913,-0.0236102 0.00792913,-0.0295945l0.455858 -0.263181c0.0103622,-0.00598425 0.0236142,-0.00242913 0.0295945,0.00792913 0.00598425,0.0103622 0.00243307,0.0236102 -0.00792913,0.0295945l-0.455858 0.263177c-0.00340945,0.00197638 -0.00713386,0.00291339 -0.010811,0.00291339z"/>
  <path class="fil1" d="M1.00332 0.926894c-0.00215354,0 -0.00435433,-0.000326772 -0.00652362,-0.00101181 -0.0114094,-0.00359843 -0.0177441,-0.0157677 -0.0141457,-0.0271772l0.023185 -0.0735197 -0.0587402 -0.0170748c-0.0114921,-0.00333858 -0.0181024,-0.0153622 -0.0147598,-0.0268504 0.00334252,-0.0114921 0.0153661,-0.0180984 0.0268543,-0.0147559l0.0800197 0.0232598c0.00559843,0.00162598 0.0103031,0.00544488 0.0130551,0.0105866 0.00275197,0.00514173 0.00331496,0.0111772 0.00155906,0.0167362l-0.0298465 0.0946535c-0.00291339,0.00924016 -0.0114528,0.0151535 -0.0206575,0.0151535z"/>
  <path class="fil2" d="M1.21906 1.70662l-0.827646 0c-0.0396339,0 -0.071878,-0.0322441 -0.071878,-0.071878 0,-0.0396299 0.0322441,-0.071874 0.071878,-0.071874l0.827646 0c0.0396299,0 0.0718701,0.0322402 0.0718701,0.071874 0,0.0396339 -0.0322441,0.071878 -0.0718701,0.071878z"/>
  <path class="fil1" d="M1.09547 0.676488l-0.093122 0c-0.0108307,0 -0.0199961,-0.00799213 -0.0214646,-0.0187244l-0.00594882 -0.0434134 -0.0268583 0.034622c-0.00664173,0.00855906 -0.0185827,0.0109016 -0.0279528,0.00548425l-0.0806496 -0.046563c-0.00937795,-0.00541339 -0.0133189,-0.0169213 -0.00922835,-0.0269488l0.0165551 -0.0405709 -0.0405709 0.0165512c-0.0100315,0.00409055 -0.0215315,0.000145669 -0.0269488,-0.00922835l-0.046563 -0.0806457c-0.00541732,-0.00937402 -0.00307087,-0.021315 0.00548425,-0.0279528l0.034622 -0.0268622 -0.0434173 -0.00594882c-0.0107283,-0.00147244 -0.0187205,-0.0106378 -0.0187205,-0.0214685l0 -0.0931181c0,-0.0108268 0.00799606,-0.0199921 0.0187244,-0.0214646l0.0434134 -0.00594882 -0.034622 -0.0268622c-0.00855512,-0.0066378 -0.0108976,-0.0185709 -0.00548031,-0.0279528l0.0465591 -0.0806457c0.00541732,-0.00937402 0.0169252,-0.013315 0.0269488,-0.00922835l0.0405709 0.0165512 -0.0165551 -0.0405709c-0.00409055,-0.0100236 -0.000149606,-0.0215315 0.00922835,-0.0269488l0.0806457 -0.0465551c0.00937008,-0.00541732 0.021311,-0.0030748 0.0279528,0.00548031l0.0268583 0.034622 0.00594488 -0.0434134c0.0014685,-0.0107283 0.0106378,-0.0187205 0.0214646,-0.0187205l0.093126 0c0.0108307,0 0.0199961,0.00799213 0.0214646,0.0187205l0.00594882 0.0434094 0.0268583 -0.0346181c0.0066378,-0.00855512 0.0185748,-0.0109016 0.0279488,-0.00548425l0.0806496 0.046563c0.00937795,0.00541732 0.0133228,0.0169252 0.00923228,0.0269528l-0.0165591 0.0405709 0.0405748 -0.0165551c0.0100315,-0.00409055 0.0215394,-0.000145669 0.0269488,0.00923228l0.046563 0.0806457c0.00541339,0.00937402 0.0030748,0.021315 -0.00548425,0.0279488l-0.034626 0.0268622 0.0434134 0.00595276c0.0107283,0.0014685 0.0187205,0.0106339 0.0187205,0.0214646l0 0.093122c0,0.0108268 -0.00799213,0.0199921 -0.0187205,0.0214646l-0.0434134 0.00595276 0.034626 0.0268622c0.00855512,0.00663386 0.0109016,0.0185709 0.00548425,0.0279488l-0.046563 0.0806457c-0.00540945,0.00937795 -0.0169173,0.0133228 -0.0269528,0.00923228l-0.0405709 -0.0165591 0.0165591 0.0405748c0.00409055,0.0100276 0.000149606,0.0215354 -0.00923228,0.0269488l-0.0806496 0.046563c-0.00937402,0.00541732 -0.021311,0.00307087 -0.0279488,-0.00548425l-0.0268543 -0.0346181 -0.00595276 0.0434134c-0.00146457,0.0107205 -0.0106299,0.0187126 -0.0214606,0.0187126zm-0.0228858 -0.316559l-0.0236772 0c-0.0119685,0 -0.0216654,-0.00969685 -0.0216654,-0.0216654l0 -0.0360906c0,-0.0119685 0.00969685,-0.0216654 0.0216654,-0.0216654 0.0119646,0 0.0216654,0.00969685 0.0216654,0.0216654l0 0.0144291 0.00201181 0c0.0119685,0 0.0216654,0.00969685 0.0216654,0.0216654 0,0.0119646 -0.00970079,0.0216614 -0.0216654,0.0216614zm-0.0236772 0.168823c-0.0698031,0 -0.130945,-0.0377441 -0.164118,-0.0938858 -0.000299213,-0.000437008 -0.000582677,-0.000889764 -0.000850394,-0.00135433 -0.000240157,-0.000417323 -0.000464567,-0.000834646 -0.000673228,-0.00125984 -0.0158071,-0.027748 -0.0248465,-0.0598268 -0.0248465,-0.0939843 0,-0.0341496 0.00903543,-0.0662244 0.0248386,-0.0939685 0.000212598,-0.000429134 0.000437008,-0.000854331 0.000681102,-0.00127559 0.000279528,-0.000484252 0.00057874,-0.000956693 0.000889764,-0.00141339 0.0330709,-0.0559213 0.0938976,-0.0935709 0.163378,-0.0938228l0.000141732 -3.93701e-006 0.000559055 -3.93701e-006 0 -3.93701e-006 0 3.93701e-006 0.000559055 3.93701e-006 0.000141732 3.93701e-006c0.0694961,0.000251969 0.130327,0.0379173 0.16339,0.0938543 0.00030315,0.000448819 0.000594488,0.000905512 0.000870079,0.00138189 0.000232283,0.000405512 0.000452756,0.000814961 0.00065748,0.00122835 0.015815,0.0277559 0.0248622,0.0598465 0.0248622,0.0940157 0,0.0341535 -0.00903937,0.0662362 -0.0248465,0.0939843 -0.000208661,0.000425197 -0.000433071,0.000846457 -0.000673228,0.00125984 -0.000267717,0.000464567 -0.000551181,0.000917323 -0.000850394,0.00135433 -0.0331693,0.0561417 -0.094311,0.0938858 -0.16411,0.0938858zm-0.0216654 -0.336043c-0.0376969,0.00558661 -0.0707795,0.0255157 -0.0935,0.0540512l0.0341024 0.019689c0.0103622,0.00598031 0.0139134,0.0192362 0.00793307,0.0295945 -0.00401969,0.00694882 -0.0112992,0.0108346 -0.0187874,0.0108346 -0.0036811,0 -0.00740157,-0.000937008 -0.010811,-0.00290551l-0.0341535 -0.0197165c-0.00662598,0.0167283 -0.0102756,0.0349488 -0.0102756,0.0540079 0,0.0190591 0.00364961,0.0372795 0.0102756,0.0540118l0.0341496 -0.0197205c0.0103543,-0.00597638 0.0236063,-0.00243307 0.0295945,0.00792913 0.00598425,0.0103622 0.00243307,0.0236102 -0.00792913,0.0295984l-0.0340984 0.019689c0.0227165,0.0285315 0.0558031,0.0484646 0.0935,0.0540512l0 -0.0394449c0,-0.0119685 0.00969685,-0.0216654 0.0216654,-0.0216654 0.0119646,0 0.0216654,0.00969685 0.0216654,0.0216654l0 0.0394488c0.0376929,-0.00559055 0.0707677,-0.0255236 0.0934882,-0.0540591l-0.0340945 -0.019689c-0.0103583,-0.00598031 -0.0139094,-0.0192362 -0.0079252,-0.0295945 0.00598425,-0.0103622 0.0192323,-0.0139094 0.0295984,-0.0079252l0.0341457 0.0197205c0.00662598,-0.0167323 0.0102717,-0.0349567 0.0102717,-0.0540157 0,-0.0190591 -0.00364961,-0.0372795 -0.0102756,-0.0540079l-0.0341457 0.0197126c-0.00340945,0.00197244 -0.0071378,0.00290945 -0.010811,0.00290945 -0.00748819,0 -0.0147717,-0.00388583 -0.0187835,-0.0108346 -0.00598425,-0.0103661 -0.00243307,-0.0236142 0.00792913,-0.0295984l0.0340984 -0.019685c-0.0227205,-0.0285315 -0.0557992,-0.0484646 -0.0934961,-0.0540512l0 0.0394409c0,0.0119685 -0.00970079,0.0216693 -0.0216654,0.0216693 -0.0119685,0 -0.0216654,-0.00970079 -0.0216654,-0.0216654l0 -0.0394449z"/>
 </g>
</svg>
