<?xml version="1.0" encoding="iso-8859-1"?>
<!-- Generator: Adobe Illustrator 24.3.0, SVG Export Plug-In . SVG Version: 6.00 Build 0)  -->
<svg version="1.1" xmlns="http://www.w3.org/2000/svg" xmlns:xlink="http://www.w3.org/1999/xlink" x="0px" y="0px"
	 viewBox="0 0 512 512" style="enable-background:new 0 0 512 512;" xml:space="preserve">
<g id="_x32_80_x2C__Brand_x2C__Label_x2C__Tag_x2C_">
	<g>
		<path style="fill:#FD5959;" d="M437.25,77.25c13.81,0,25,11.19,25,25s-11.19,25-25,25c-13.809,0-25-11.19-25-25
			S423.441,77.25,437.25,77.25z"/>
		<circle style="fill:#FD5959;" cx="107.25" cy="412.25" r="35"/>
		<path style="fill:#4E5F7F;" d="M121.87,79.11c8.5-8.5,20.33-12.78,32.3-11.69l83.18,7.56c9.44,0.86,18.271,4.99,24.971,11.69
			L446.06,270.41c15.81,15.81,15.81,41.46,0,57.27l-3.18,3.19l-0.01-0.01c-0.1-0.037-66.473,32.443-66.62,32.39l-32.37,66.61
			l-3.18,3.18c-15.82,15.82-41.46,15.82-57.28,0L100.21,249.83c-7.01-7.02-11.21-16.36-11.79-26.26l-5.1-86.68
			c-0.681-11.55,3.609-22.84,11.79-31.02C105.117,95.862,112.041,88.939,121.87,79.11z M128.21,115.2c-7.81,7.81-7.81,20.47,0,28.28
			c7.81,7.81,20.48,7.81,28.29,0c7.81-7.81,7.81-20.47,0-28.28C148.691,107.39,136.02,107.39,128.21,115.2z"/>
		<path style="fill:#FDDD41;" d="M442.88,330.87l-99,98.99L131.75,217.73l98.99-99L442.87,330.86L442.88,330.87z"/>
		<circle cx="467.25" cy="179.75" r="7.5"/>
		<path d="M439.75,417.25c4.14,0,7.5,3.36,7.5,7.5s-3.36,7.5-7.5,7.5c-4.139,0-7.5-3.36-7.5-7.5S435.611,417.25,439.75,417.25z"/>
		<path d="M369.05,328.79c1.05,2.61,1.53,5.2,1.431,7.77c-0.091,2.57-0.73,5.06-1.891,7.48c-1.17,2.41-2.77,4.63-4.79,6.66
			c-2.25,2.25-4.63,3.93-7.14,5.06c-2.521,1.12-5.061,1.69-7.65,1.69c-2.58,0-5.13-0.561-7.66-1.67c-2.529-1.11-4.899-2.78-7.119-5
			l-11.04-11.03l29.569-29.57l11.04,11.03C366.241,323.66,367.991,326.18,369.05,328.79z M361.13,335.37
			c0.11-1.44-0.11-2.86-0.66-4.25c-0.56-1.38-1.45-2.69-2.67-3.91l-4.21-4.21l-17.57,17.58l4.211,4.21
			c1.239,1.24,2.579,2.13,3.989,2.66c1.42,0.53,2.85,0.72,4.29,0.58c1.45-0.141,2.88-0.57,4.29-1.29c1.42-0.721,2.771-1.721,4.04-3
			c1.31-1.3,2.32-2.66,3.04-4.08C360.6,338.25,361.02,336.82,361.13,335.37z"/>
		<polygon points="344.18,301.6 314.611,331.17 309.111,325.67 312.401,295.14 295.5,312.05 288.66,305.22 318.231,275.65 
			323.571,280.98 319.981,312.13 337.35,294.77 		"/>
		<circle cx="334.75" cy="67.25" r="7.5"/>
		<path d="M301.62,259.03l-18.79,40.359l-6.99-7l4.33-8.909l-9.21-9.211l-8.87,4.381l-6.99-7l40.351-18.78L301.62,259.03z
			 M283.75,277.65l7-13.91l-14,6.91L283.75,277.65z"/>
		<path d="M273.361,232.52c0.6,1.76,0.85,3.55,0.77,5.35c-0.09,1.81-0.48,3.55-1.189,5.23c-0.71,1.68-1.671,3.13-2.891,4.35
			c-0.92,0.92-1.91,1.69-2.979,2.31c-1.07,0.63-2.19,1.11-3.35,1.44c-1.17,0.33-2.35,0.5-3.54,0.5c-1.199,0-2.38-0.17-3.54-0.5
			l-4.5,17.49l-7.71-7.7l3.88-15.2l-4.46-4.46l-9.54,9.54l-6.829-6.83l29.569-29.57l13.33,13.33
			C271.77,229.18,272.76,230.76,273.361,232.52z M265.01,236.58c0.05-1.39-0.31-2.47-1.08-3.25l-6.04-6.03l-8.08,8.07l6.24,6.25
			c0.811,0.81,1.88,1.12,3.23,0.94c1.35-0.18,2.62-0.87,3.81-2.06C264.31,239.28,264.95,237.97,265.01,236.58z"/>
		<path d="M244.231,202.97c0.38,1.28,0.52,2.56,0.39,3.86c-0.12,1.29-0.48,2.54-1.061,3.76c-0.579,1.23-1.35,2.31-2.29,3.25
			c-1.42,1.42-3.1,2.4-5.06,2.94c-1.96,0.54-3.96,0.42-6.02-0.35c1.189,2.19,1.64,4.42,1.35,6.68c-0.29,2.26-1.43,4.39-3.43,6.39
			c-1.28,1.28-2.65,2.13-4.13,2.54c-1.471,0.42-2.971,0.48-4.511,0.19c-1.54-0.29-3.09-0.89-4.63-1.79
			c-1.54-0.9-2.99-2.03-4.35-3.39l-14.41-14.41l29.57-29.57l16.449,16.45C243.13,200.54,243.84,201.7,244.231,202.97z
			 M234.67,205.33c0.01-1.05-0.34-1.93-1.06-2.65l-6.96-6.95l-6.12,6.12l6.7,6.7c0.75,0.75,1.67,1.17,2.75,1.25
			c1.09,0.09,2.149-0.4,3.21-1.45C234.16,207.37,234.651,206.37,234.67,205.33z M224.071,218.05c0.109-1.17-0.24-2.15-1.04-2.96
			l-7.87-7.87l-6.46,6.46l7.58,7.58c0.89,0.88,1.92,1.33,3.08,1.33c1.17,0,2.22-0.47,3.17-1.42
			C223.441,220.26,223.96,219.22,224.071,218.05z"/>
		<circle cx="214.75" cy="439.75" r="7.5"/>
		<circle cx="104.75" cy="319.75" r="7.5"/>
		<circle cx="44.75" cy="109.75" r="7.5"/>
		<path d="M312.061,449.882c-11.653,0-23.306-4.436-32.176-13.307L96.674,253.365c-7.891-7.902-12.594-18.379-13.245-29.503
			l-5.1-86.679c-0.763-12.966,4.065-25.668,13.246-34.849l26.76-26.76c9.575-9.575,22.798-14.361,36.289-13.134l83.18,7.56
			c10.584,0.964,20.547,5.628,28.053,13.134l183.739,183.741c8.592,8.59,13.322,20.015,13.322,32.17
			c0,12.154-4.73,23.58-13.322,32.171l-3.174,3.184L344.236,436.575C335.366,445.446,323.713,449.882,312.061,449.882z
			 M150.47,72.252c-9.375,0-18.365,3.695-25.064,10.394l-26.76,26.76c-7.163,7.163-10.93,17.073-10.335,27.19l5.101,86.68
			c0.509,8.68,4.18,16.855,10.337,23.021l183.207,183.208c6.707,6.707,15.623,10.4,25.105,10.4c9.481,0,18.397-3.693,25.104-10.4
			l3.18-3.18v-0.001l98.999-98.99l3.173-3.184c6.709-6.708,10.399-15.622,10.399-25.105s-3.69-18.397-10.392-25.099L258.784,90.206
			c-5.855-5.855-13.629-9.494-21.888-10.246l-83.18-7.56C152.632,72.301,151.548,72.252,150.47,72.252z"/>
		<path d="M142.355,154.327c-6.402,0-12.806-2.437-17.681-7.312c-4.722-4.722-7.321-10.999-7.321-17.676
			c0-6.677,2.6-12.954,7.321-17.675c9.749-9.75,25.611-9.749,35.361,0c4.722,4.722,7.322,10.999,7.322,17.675
			c0,6.677-2.601,12.954-7.322,17.676C155.161,151.89,148.758,154.327,142.355,154.327z M142.355,114.348
			c-3.842,0-7.684,1.462-10.608,4.388c-2.833,2.833-4.394,6.599-4.394,10.604c0,4.005,1.56,7.771,4.394,10.605
			c2.832,2.833,6.601,4.393,10.608,4.393c4.009,0,7.776-1.56,10.609-4.393c2.833-2.833,4.394-6.599,4.394-10.605
			c0-4.005-1.561-7.771-4.394-10.604C150.039,115.811,146.198,114.348,142.355,114.348z"/>
		<path d="M128.21,120.2c-1.28,0-2.56-0.488-3.537-1.465L78.714,72.766c-1.952-1.953-1.952-5.119,0-7.071
			c1.953-1.952,5.118-1.952,7.071,0l45.961,45.971c1.952,1.953,1.951,5.119-0.002,7.071C130.769,119.712,129.49,120.2,128.21,120.2z
			"/>
		<path d="M343.88,434.86c-1.279,0-2.56-0.488-3.535-1.465l-212.131-212.13c-1.952-1.953-1.952-5.118,0-7.071l98.991-99
			c0.938-0.938,2.209-1.465,3.535-1.465c1.326,0,2.598,0.527,3.535,1.464l212.129,212.131c1.953,1.952,1.953,5.118,0,7.07
			c-1.951,1.953-5.119,1.953-7.07,0L230.741,125.801l-91.919,91.929l208.594,208.595c1.953,1.952,1.953,5.118,0,7.07
			C346.44,434.372,345.159,434.86,343.88,434.86z"/>
		<path d="M437.25,132.25c-16.542,0-30-13.458-30-30s13.458-30,30-30c16.542,0,30,13.458,30,30S453.792,132.25,437.25,132.25z
			 M437.25,82.25c-11.028,0-20,8.972-20,20s8.972,20,20,20c11.028,0,20-8.972,20-20S448.278,82.25,437.25,82.25z"/>
		<path d="M107.25,452.25c-22.057,0-40-17.944-40-40s17.943-40,40-40c22.056,0,40,17.944,40,40S129.306,452.25,107.25,452.25z
			 M107.25,382.25c-16.542,0-30,13.458-30,30s13.458,30,30,30s30-13.458,30-30S123.792,382.25,107.25,382.25z"/>
	</g>
</g>
<g id="Layer_1">
</g>
</svg>
