<?xml version="1.0" encoding="UTF-8"?>
<!DOCTYPE svg PUBLIC "-//W3C//DTD SVG 1.1//EN" "http://www.w3.org/Graphics/SVG/1.1/DTD/svg11.dtd">
<!-- Creator: CorelDRAW -->
<svg xmlns="http://www.w3.org/2000/svg" xml:space="preserve" width="512px" height="512px" version="1.1" style="shape-rendering:geometricPrecision; text-rendering:geometricPrecision; image-rendering:optimizeQuality; fill-rule:evenodd; clip-rule:evenodd"
viewBox="0 0 512 512"
 xmlns:xlink="http://www.w3.org/1999/xlink">
 <defs>
  <style type="text/css">
   <![CDATA[
    .fil0 {fill:#4D4D4D}
    .fil2 {fill:#99A4AC}
    .fil3 {fill:#D9F2F2}
    .fil1 {fill:#F3A766}
   ]]>
  </style>
 </defs>
 <g id="Layer_x0020_1">
  <metadata id="CorelCorpID_0Corel-Layer"/>
  <path class="fil0" d="M253 441l-122 0c-4,0 -7,-3 -7,-7l0 -82c0,-4 3,-7 7,-7l122 0c4,0 7,3 7,7l0 82c0,4 -3,7 -7,7zm31 71l-183 0c-25,0 -52,-18 -47,-42l24 -127c7,-33 31,-60 63,-67l0 -50c0,-4 3,-7 7,-7l39 0c3,-19 9,-36 18,-53 -26,-14 -13,-53 0,-74 17,-27 70,-63 100,-73 44,-15 123,-35 149,3 1,2 6,9 4,21 -4,22 -32,47 -84,71 -53,26 -86,53 -155,56 -8,15 -14,32 -18,49l37 0c4,0 7,3 7,7l0 50c32,8 55,34 62,67l25 127c4,23 -22,42 -48,42zm-192 -167l-24 127c-2,16 19,26 33,26l183 0c17,0 37,-12 34,-26l-25 -127c-6,-29 -29,-57 -68,-57 -13,0 -63,-1 -72,0 -35,4 -56,31 -61,57zm-31 126l0 0zm99 -197l65 0c2,0 4,0 6,0l0 -41 -76 0 0 41 5 0zm239 -260c-38,0 -79,16 -90,19 -28,8 -77,43 -92,67 -9,15 -21,45 -5,54 36,-59 104,-95 154,-109 9,-2 13,11 4,14 -1,0 -39,10 -78,36 -27,17 -49,37 -64,60 59,-4 91,-30 140,-53 62,-30 75,-52 76,-62 2,-6 -1,-9 -1,-9 0,-1 0,-1 -1,-1 -8,-12 -26,-16 -43,-16zm-92 12l0 0zm-169 401l108 0 0 -68 -108 0 0 68z"/>
  <path class="fil1" d="M212 154c36,-59 104,-95 154,-109 9,-2 13,11 4,14 -1,0 -39,10 -78,36 -27,17 -49,37 -64,60 59,-4 91,-30 140,-53 62,-30 75,-52 76,-62 2,-6 -1,-9 -1,-9 0,-1 0,-1 -1,-1 -8,-12 -26,-16 -43,-16 -38,0 -79,16 -90,19 -28,8 -77,43 -92,67 -9,15 -21,45 -5,54z"/>
  <path class="fil2" d="M231 233l-76 0 0 41 5 0 65 0c2,0 4,0 6,0l0 -41z"/>
  <path class="fil2" d="M225 288c-13,0 -63,-1 -72,0 -35,4 -56,31 -61,57l-24 127c-2,16 19,26 33,26l183 0c17,0 37,-12 34,-26l-25 -127c-6,-29 -29,-57 -68,-57zm-94 57l122 0c4,0 7,3 7,7l0 82c0,4 -3,7 -7,7l-122 0c-4,0 -7,-3 -7,-7l0 -82c0,-4 3,-7 7,-7z"/>
  <polygon class="fil3" points="246,359 138,359 138,427 246,427 "/>
 </g>
</svg>
