<?xml version="1.0" encoding="UTF-8" standalone="no"?> <svg xmlns="http://www.w3.org/2000/svg" xmlns:xlink="http://www.w3.org/1999/xlink" viewBox="0 0 64 64"><defs><style>.cls-1{fill:url(#linear-gradient);}.cls-2{fill:url(#linear-gradient-2);}</style><linearGradient id="linear-gradient" x1="2.86" y1="32.11" x2="26.73" y2="32.11" gradientUnits="userSpaceOnUse"><stop offset="0" stop-color="#f62c84"/><stop offset="0.23" stop-color="#e1309c"/><stop offset="0.72" stop-color="#ab38d9"/><stop offset="1" stop-color="#8a3eff"/></linearGradient><linearGradient id="linear-gradient-2" x1="16.07" y1="32.11" x2="61.15" y2="32.11" xlink:href="#linear-gradient"/></defs><g id="Layer_68" data-name="Layer 68"><path class="cls-1" d="M22.23,61.11H14.37A11.53,11.53,0,0,1,2.86,49.59v-35A11.52,11.52,0,0,1,14.37,3.11h7.86a4.5,4.5,0,1,1,0,9H14.37a2.52,2.52,0,0,0-2.51,2.51v35a2.52,2.52,0,0,0,2.51,2.52h7.86a4.5,4.5,0,1,1,0,9Zm-7.86-56a9.53,9.53,0,0,0-9.51,9.51v35a9.53,9.53,0,0,0,9.51,9.52h7.86a2.5,2.5,0,1,0,0-5H14.37a4.52,4.52,0,0,1-4.51-4.52v-35a4.51,4.51,0,0,1,4.51-4.51h7.86a2.5,2.5,0,1,0,0-5Z"/><path class="cls-2" d="M44.11,49.07a5,5,0,0,1-3.54-8.53l3.5-3.5h-23a5,5,0,0,1,0-10H43.93l-3.36-3.36a5,5,0,0,1,7-7.09l12,11.89a5,5,0,0,1-.08,7.19L47.64,47.61A5,5,0,0,1,44.11,49.07Zm-23-20a3,3,0,0,0,0,6H46.49a1,1,0,0,1,.7,1.7L42,42a3,3,0,0,0,0,4.24,3.06,3.06,0,0,0,4.24,0l12-12a3,3,0,0,0,.06-4.33L46.22,18A3,3,0,0,0,42,22.26l5.06,5.07a1,1,0,0,1,.22,1.09,1,1,0,0,1-.93.62Zm40.07,3h0Z"/></g></svg>