<?xml version="1.0" encoding="UTF-8" standalone="no"?> <svg xmlns="http://www.w3.org/2000/svg" viewBox="0 0 64 64"><title>Mechanic, hand, wrench, repair, fixed, </title><g id="Flat"><path d="M18,35H8a3,3,0,0,1-3-3H5a3,3,0,0,1,3-3H18Z" style="fill:#f9b480"/><path d="M17,35v6H6a3,3,0,0,1,0-6Z" style="fill:#f9b480"/><path d="M17,38v3H6a3,3,0,0,1-2.6-1.5,3.3,3.3,0,0,1,.48-.62A2.993,2.993,0,0,1,6,38Z" style="fill:#f7a46b"/><path d="M19,32v3H8a3,3,0,0,1-2.6-1.5,3.3,3.3,0,0,1,.48-.62A2.993,2.993,0,0,1,8,32Z" style="fill:#f7a46b"/><path d="M21,50a2.772,2.772,0,0,1-.18,1,3.646,3.646,0,0,1-.14.35l-.09.15a3,3,0,0,1-.25.37,2.622,2.622,0,0,1-.22.25,2.838,2.838,0,0,1-1.12.7A2.772,2.772,0,0,1,18,53H10a3,3,0,0,1,0-6h8a2.772,2.772,0,0,1,1,.18A2.968,2.968,0,0,1,21,50Z" style="fill:#f9b480"/><path d="M20.59,51.5a3,3,0,0,1-.25.37,2.622,2.622,0,0,1-.22.25,2.838,2.838,0,0,1-1.12.7A2.772,2.772,0,0,1,18,53H10a3,3,0,0,1-2.6-1.5,3.3,3.3,0,0,1,.48-.62A2.993,2.993,0,0,1,10,50h8a2.772,2.772,0,0,1,1,.18A2.889,2.889,0,0,1,20.59,51.5Z" style="fill:#f7a46b"/><path d="M25,39.46V57a3.992,3.992,0,0,1-3,3.87A3.657,3.657,0,0,1,21,61a4,4,0,0,1-4-4V53h1a2.772,2.772,0,0,0,1-.18,2.838,2.838,0,0,0,1.12-.7,2.622,2.622,0,0,0,.22-.25,3.106,3.106,0,0,0,.34-.52,2.846,2.846,0,0,0,.26-.76,2.7,2.7,0,0,0,.04-.28c.01-.1.02-.21.02-.31a2.968,2.968,0,0,0-2-2.82A2.772,2.772,0,0,0,18,47H17v-.18a2.838,2.838,0,0,0,1.12-.7A2.99,2.99,0,0,0,17,41.18V41a5.983,5.983,0,0,0,5-2.69A5.9,5.9,0,0,0,23,35,5.947,5.947,0,0,0,25,39.46Z" style="fill:#ccc"/><path d="M43,33V47H38a6.009,6.009,0,0,1-6,6H25V39.46A5.947,5.947,0,0,1,23,35a6,6,0,0,1-6,6V31.08A3.992,3.992,0,0,1,17.58,29a4.092,4.092,0,0,1,3.5-2H32a6,6,0,0,1,6,6Z" style="fill:#f9b480"/><path d="M31,13a9.991,9.991,0,0,1-6,9.16V27H21.08a4.092,4.092,0,0,0-3.5,2H17V22.16a10,10,0,0,1,1-18.7V13h6V3.46A9.992,9.992,0,0,1,31,13Z" style="fill:#ccc"/><path d="M19,44a3.026,3.026,0,0,1-.4,1.5,3.3,3.3,0,0,1-.48.62,2.838,2.838,0,0,1-1.12.7A2.772,2.772,0,0,1,16,47H8a3,3,0,0,1,0-6h8a2.772,2.772,0,0,1,1,.18A2.968,2.968,0,0,1,19,44Z" style="fill:#f9b480"/><path d="M18.6,45.5a3.3,3.3,0,0,1-.48.62,2.838,2.838,0,0,1-1.12.7A2.772,2.772,0,0,1,16,47H8a3,3,0,0,1-2.6-1.5,3.3,3.3,0,0,1,.48-.62A2.993,2.993,0,0,1,8,44h8a2.772,2.772,0,0,1,1,.18A2.945,2.945,0,0,1,18.6,45.5Z" style="fill:#f7a46b"/><rect x="20" y="56" width="2" height="2" style="fill:#7a7a7a"/><rect x="43" y="30" width="6" height="20" style="fill:#e6e6e6"/><rect x="49" y="28" width="12" height="24" style="fill:#0581c6"/><rect x="52" y="47" width="2" height="2" style="fill:#e6e6e6"/><rect x="19" y="16" width="4" height="2" style="fill:#7a7a7a"/><path d="M25,39.46V57a3.992,3.992,0,0,1-3,3.87V38.31A5.9,5.9,0,0,0,23,35,5.947,5.947,0,0,0,25,39.46Z" style="fill:#d8d8d8"/><path d="M29,42a6.946,6.946,0,0,1-4.672-1.8A6.855,6.855,0,0,1,23,38.6,7,7,0,0,1,17,42a1,1,0,0,1,0-2,5.006,5.006,0,0,0,5-5,1,1,0,0,1,2,0,5.023,5.023,0,0,0,5,5,1,1,0,0,1,0,2Z" style="fill:#e0965f"/><path d="M31,13a9.991,9.991,0,0,1-6,9.16V27H22V13h2V3.46A9.992,9.992,0,0,1,31,13Z" style="fill:#d8d8d8"/></g><g id="Original_copy" data-name="Original copy"><path d="M4.688,41.761a3.979,3.979,0,0,0,2,6A4,4,0,0,0,10,54h6v3a5,5,0,0,0,10,0V54h6a7.014,7.014,0,0,0,6.93-6H42v2a1,1,0,0,0,1,1h5v1a1,1,0,0,0,1,1H61a1,1,0,0,0,1-1V46.936H60V51H50V29H60V41.048h2V28a1,1,0,0,0-1-1H49a1,1,0,0,0-1,1v1H43a1,1,0,0,0-1,1v2H38.929A7.011,7.011,0,0,0,32,26H26V22.793A11,11,0,0,0,24.3,2.505,1,1,0,0,0,23,3.46V12H19V3.46a1,1,0,0,0-1.3-.955A11,11,0,0,0,16,22.793V28H8a4,4,0,0,0-3.314,6.237,3.977,3.977,0,0,0,0,7.524ZM6,44a2,2,0,0,1,2-2h8a2,2,0,0,1,0,4H8A2,2,0,0,1,6,44Zm2,6a2,2,0,0,1,2-2h8a2,2,0,0,1,0,4H10A2,2,0,0,1,8,50Zm16,7a3,3,0,0,1-6,0V54a3.99,3.99,0,0,0,1.313-7.761,3.959,3.959,0,0,0-.109-4.61A7.028,7.028,0,0,0,23,38.6a6.859,6.859,0,0,0,1,1.259V57ZM44,31h4V49H44V31Zm-7,2a1,1,0,0,0,1,1h4V46H38a1,1,0,0,0-1,1,5.009,5.009,0,0,1-5,5H26V41.318A6.945,6.945,0,0,0,29,42a1,1,0,0,0,0-2,5.023,5.023,0,0,1-5-5,1,1,0,0,0-2,0,5.009,5.009,0,0,1-4,4.9V31.08a3.02,3.02,0,0,1,.438-1.568A3.1,3.1,0,0,1,21.08,28H32A5.006,5.006,0,0,1,37,33ZM12,13a8.95,8.95,0,0,1,5-8.067V13a1,1,0,0,0,1,1h6a1,1,0,0,0,1-1V4.933a9,9,0,0,1-.4,16.311,1,1,0,0,0-.6.916V26H21.08A5.071,5.071,0,0,0,18,27.056v-4.9a1,1,0,0,0-.6-.916A8.994,8.994,0,0,1,12,13ZM8,30h8v4H8a2,2,0,0,1,0-4ZM4.587,36.587A1.986,1.986,0,0,1,6,36H16v4H6a2,2,0,0,1-1.413-3.413Z"/><rect x="20" y="56" width="2" height="2"/><rect x="60" y="43.048" width="2" height="1.887"/><rect x="52" y="47" width="2" height="2"/><rect x="19" y="16" width="4" height="2"/></g></svg>