<?xml version="1.0" encoding="UTF-8"?>
<!DOCTYPE svg PUBLIC "-//W3C//DTD SVG 1.1//EN" "http://www.w3.org/Graphics/SVG/1.1/DTD/svg11.dtd">
<!-- Creator: CorelDRAW -->
<svg xmlns="http://www.w3.org/2000/svg" xml:space="preserve" width="1.70666in" height="1.70666in" version="1.1" style="shape-rendering:geometricPrecision; text-rendering:geometricPrecision; image-rendering:optimizeQuality; fill-rule:evenodd; clip-rule:evenodd"
viewBox="0 0 1706.66 1706.66"
 xmlns:xlink="http://www.w3.org/1999/xlink"
 xmlns:xodm="http://www.corel.com/coreldraw/odm/2003">
 <defs>
  <style type="text/css">
   <![CDATA[
    .fil0 {fill:url(#id0)}
   ]]>
  </style>
  <linearGradient id="id0" gradientUnits="userSpaceOnUse" x1="0.07" y1="853.33" x2="1706.57" y2="853.33">
   <stop offset="0" style="stop-opacity:1; stop-color:#FFB800"/>
   <stop offset="1" style="stop-opacity:1; stop-color:#FF5329"/>
  </linearGradient>
 </defs>
 <g id="Layer_x0020_1">
  <metadata id="CorelCorpID_0Corel-Layer"/>
  <path class="fil0" d="M503.12 1706.66c-5.14,0 -10.28,-1.94 -14.17,-5.83l-197.86 -197.87c-7.54,-7.79 -7.48,-20.41 0.22,-28.1 39.18,-39.15 -20.28,-98.61 -59.44,-59.44 -7.5,7.5 -20.65,7.69 -28.47,-0.14l-197.5 -197.5c-7.78,-7.78 -7.78,-20.42 0,-28.33l1183.6 -1183.6c7.78,-7.78 20.42,-7.78 28.33,0l197.86 197.87c24.43,25.26 -36.6,40.75 -3.8,82.8 14.3,17.97 41.92,25.86 63.03,4.75 7.52,-7.52 20.91,-7.53 28.47,0.14l197.36 197.36c7.78,7.78 7.78,20.42 0,28.33l-62.36 62.36c-7.5,7.5 -20.83,7.5 -28.33,0l-71.39 -71.39 -71.18 71.18 76.87 76.87c18.9,18.9 -10.07,46.6 -28.33,28.33l-76.87 -76.87 -43.26 43.26 76.8 76.81c18.89,18.89 -10.03,46.65 -28.33,28.33l-76.8 -76.81 -43.28 43.28 76.75 76.86c18.9,18.92 -10.05,46.64 -28.33,28.33l-76.75 -76.86 -43.39 43.39 76.8 76.8c18.89,18.89 -10.01,46.67 -28.33,28.33l-76.8 -76.8 -43.27 43.27 76.74 76.86c18.9,18.92 -10.04,46.65 -28.33,28.33l-76.74 -76.86 -43.33 43.33 76.74 76.86c18.9,18.92 -10.04,46.65 -28.33,28.33l-76.74 -76.86 -43.39 43.39 76.8 76.8c18.89,18.89 -10.01,46.67 -28.33,28.33l-76.8 -76.8 -43.33 43.33 76.8 76.8c18.89,18.89 -10.01,46.67 -28.33,28.33l-76.8 -76.8 -43.26 43.26 76.73 76.74c18.84,18.84 -9.99,46.84 -28.33,28.47l-76.74 -76.86 -43.32 43.32 76.87 76.87c18.97,18.97 -10.19,46.64 -28.47,28.33l-76.74 -76.86 -43.45 43.45 76.86 76.75c18.89,18.86 -9.99,46.68 -28.33,28.33l-76.86 -76.75 -43.26 43.26 76.93 76.81c18.89,18.86 -10.01,46.65 -28.33,28.33l-76.93 -76.81 -43.27 43.27 76.87 76.87c18.89,18.89 -10.04,46.64 -28.33,28.33l-76.87 -76.87 -71.32 71.32 71.39 71.39c7.78,7.78 7.78,20.42 0,28.33l-62.36 62.36c-3.75,3.88 -8.75,5.83 -13.89,5.83zm-35.28 -781.8c-17.85,0 -26.66,-21.57 -14.17,-34.17l437.22 -437.22c18.54,-18.54 46.97,9.54 28.33,28.33l-437.36 437.22c-3.89,3.89 -9.03,5.83 -14.03,5.83zm545 -48.19c-17.85,0 -26.66,-21.57 -14.17,-34.17l321.11 -321.11c18.54,-18.54 46.97,9.53 28.33,28.33l-321.11 321.11c-3.89,3.89 -9.03,5.83 -14.17,5.83zm-477.08 477.22c-17.85,0 -26.66,-21.56 -14.17,-34.17l320.97 -321.11c18.54,-18.54 46.97,9.53 28.33,28.33l-321.11 321.11c-3.89,3.89 -9.03,5.83 -14.03,5.83zm909.44 -923.88c-143.23,0 -217.74,-165.71 -132.57,-272.63l-108.95 -109.04 -1155.27 1155.27 108.22 108.22c25.4,-19.28 69.8,-35.31 104.83,-35.31 140.1,0 219.03,161.42 132.27,272.55l109.26 109.26 34.03 -34.03 -71.39 -71.39c-7.78,-7.78 -7.78,-20.42 0,-28.33l1058.88 -1058.88c7.78,-7.78 20.42,-7.78 28.33,0l71.39 71.39 34.03 -34.03 -108.88 -108.88c-29.65,23.2 -65.96,35.83 -104.18,35.83zm-103.99 -244.02c-61.15,83.72 -1.67,204.16 103.99,204.16 27.61,0 53.83,-8.59 75.61,-24.53l-33.48 -33.48c-14.26,8.6 -29.23,12.28 -43.88,11.81 -56.7,-1.72 -103.94,-65.85 -68.81,-124.5l-33.44 -33.46zm-176.42 389.71c-5.28,0 -10.42,-2.08 -14.17,-5.83l-99.44 -99.44c-7.78,-7.78 -7.78,-20.42 0,-28.33l103.61 -103.61c7.5,-7.5 20.83,-7.5 28.33,0l99.44 99.44c7.78,7.78 7.78,20.42 0,28.33l-103.61 103.61c-3.76,3.75 -8.76,5.83 -14.17,5.83zm-71.11 -119.44l71.11 71.11 75.28 -75.28 -71.11 -71.11 -75.28 75.28zm-106.94 297.64c-5.28,0 -10.42,-2.08 -14.17,-5.83l-99.44 -99.44c-7.78,-7.78 -7.78,-20.42 0,-28.33l103.61 -103.61c7.5,-7.5 20.83,-7.5 28.33,0l99.44 99.44c7.78,7.78 7.78,20.42 0,28.33l-103.61 103.61c-3.89,3.75 -8.89,5.83 -14.17,5.83zm-71.25 -119.44l71.11 71.11 75.28 -75.28 -71.11 -71.11 -75.28 75.28zm-106.94 297.63c-5.14,0 -10.28,-1.94 -14.17,-5.83l-99.44 -99.44c-7.77,-7.77 -7.78,-20.56 0,-28.33l103.61 -103.61c7.78,-7.78 20.42,-7.78 28.33,0l99.44 99.44c7.77,7.77 7.78,20.56 0,28.33l-103.61 103.61c-3.89,3.89 -9.03,5.83 -14.17,5.83zm-71.11 -119.44l71.11 71.11 75.27 -75.27 -71.11 -71.11 -75.28 75.28zm-107.08 297.49c-5.14,0 -10.28,-1.94 -14.17,-5.83l-99.44 -99.44c-7.77,-7.77 -7.78,-20.56 0,-28.33l103.61 -103.61c7.78,-7.78 20.42,-7.78 28.33,0l99.44 99.44c7.77,7.77 7.78,20.56 0,28.33l-103.61 103.61c-3.89,3.89 -9.03,5.83 -14.17,5.83zm-71.11 -119.44l71.11 71.11 75.28 -75.28 -71.11 -71.11 -75.28 75.28zm-106.94 297.64c-5.14,0 -10.28,-1.94 -14.17,-5.83l-99.44 -99.44c-7.77,-7.77 -7.78,-20.56 0,-28.33l103.61 -103.61c7.78,-7.78 20.42,-7.78 28.33,0l99.44 99.44c7.77,7.77 7.78,20.56 0,28.33l-103.61 103.61c-4.03,3.89 -9.17,5.83 -14.17,5.83zm-71.25 -119.44l71.11 71.11 75.28 -75.28 -71.11 -71.11 -75.28 75.28zm-48.89 318.47l33.47 33.47c61.48,-84.3 1.26,-204.17 -104.03,-204.17 -27.6,0 -53.82,8.59 -75.61,24.52l33.39 33.39c72.79,-43.61 155.94,40.05 112.78,112.78z"/>
 </g>
</svg>
