<?xml version="1.0" encoding="UTF-8"?>
<!DOCTYPE svg PUBLIC "-//W3C//DTD SVG 1.1//EN" "http://www.w3.org/Graphics/SVG/1.1/DTD/svg11.dtd">
<!-- Creator: CorelDRAW -->
<svg xmlns="http://www.w3.org/2000/svg" xml:space="preserve" width="512px" height="512px" version="1.1" style="shape-rendering:geometricPrecision; text-rendering:geometricPrecision; image-rendering:optimizeQuality; fill-rule:evenodd; clip-rule:evenodd"
viewBox="0 0 512 512"
 xmlns:xlink="http://www.w3.org/1999/xlink"
 xmlns:xodm="http://www.corel.com/coreldraw/odm/2003">
 <defs>
  <style type="text/css">
   <![CDATA[
    .fil0 {fill:url(#id0)}
   ]]>
  </style>
  <linearGradient id="id0" gradientUnits="userSpaceOnUse" x1="256" y1="512" x2="256" y2="0">
   <stop offset="0" style="stop-opacity:1; stop-color:#1AA8DC"/>
   <stop offset="0.490196" style="stop-opacity:1; stop-color:#AE3B89"/>
   <stop offset="1" style="stop-opacity:1; stop-color:#F26270"/>
  </linearGradient>
 </defs>
 <g id="Layer_x0020_1">
  <metadata id="CorelCorpID_0Corel-Layer"/>
  <path class="fil0" d="M256 512c-35.45,0 -69.78,-7.11 -101.32,-20.63 4.48,-45.6 -7.88,-98.44 -12.52,-115.9l47.12 -25.99 60.37 108.47c0.36,0.76 0.86,1.46 1.48,2.06l0.04 0.04 0.05 0.05c1.1,1.05 2.5,1.69 4.01,1.86l0.05 0 0.02 0 0.03 0.01 0.06 0 0.03 0.01 0.02 0 0.06 0 0.03 0 0.02 0 0.06 0.01 0.04 0 0.01 0 0.06 0 0.04 0.01 0.01 0 0.06 0 0.05 0 0.01 0 0.05 0 0.06 0 0.06 0 0.05 0 0.01 0 0.05 0 0.05 0 0.01 0 0.05 -0.01 0.05 0 0.02 0 0.04 0 0.05 -0.01 0.03 0 0.03 0 0.05 0 0.03 0 0.03 -0.01 0.05 0 0.04 -0.01 0.02 0 0.05 0c1.51,-0.17 2.91,-0.81 4.01,-1.86l0.05 -0.05 0.04 -0.04c0.62,-0.6 1.12,-1.3 1.48,-2.06l60.45 -108.63 46.99 25.97c-4.56,17.17 -16.81,69.85 -12.62,116.15 -31.51,13.47 -65.78,20.56 -101.17,20.56zm-114.83 -26.89c-7.94,-3.97 -15.67,-8.35 -23.17,-13.15l0 -64.96c0,-0.17 0.14,-12.92 11.79,-23.44 4.61,18.66 14.04,62.89 11.38,101.55zm60.23 -142.58l14.1 -8.43 35.2 44.2c1.4,1.6 3.4,2.6 5.5,2.6l1 0c2.1,0 4.2,-1 5.5,-2.7l34.2 -44.1 13.79 8.26 -54.69 98.28 -54.6 -98.11zm180.78 40.81c11.56,10.35 11.92,22.97 11.92,23.56l0 65c-7.57,4.84 -15.37,9.27 -23.39,13.27 -2.43,-39.26 6.94,-83.39 11.47,-101.83zm-278.18 79c-10.27,-7.58 -20.03,-15.97 -29.2,-25.14 -48.2,-48.2 -74.8,-112.6 -74.8,-181.2 0,-68.6 26.6,-133 74.8,-181.2 48.2,-48.2 112.6,-74.8 181.2,-74.8 68.6,0 133,26.6 181.2,74.8 48.2,48.2 74.8,112.6 74.8,181.2 0,68.6 -26.6,133 -74.8,181.2 -9.14,9.14 -18.87,17.51 -29.1,25.06l0 -55.36c0,-1 -0.3,-26.2 -26.6,-41.1l-57.9 -31.9 -23.52 -14.08 -9.01 -15.45c19.25,-11.42 34.84,-33.75 38.03,-68.57 0.89,-10.07 0.27,-19.11 -0.65,-28.11 7.85,-6.87 12.85,-16.34 14.15,-26.09 2.2,-16.8 -6.9,-35.4 -31.9,-40.2 0.1,-1.2 0.2,-2.7 0.2,-4.5 0,-14 -15.4,-23.6 -40.2,-25 -21.4,-1.3 -43.9,3.9 -61.7,14.1 -22.6,13 -36.1,33 -39,58 -1.9,14.4 3.6,21.1 8.5,24.2 1.66,1.04 3.48,1.8 5.41,2.31 -1.08,7.46 -1.52,16.75 0.19,26.49 2.3,23.1 11.2,42.7 25.6,56.6 3.89,3.77 8.12,7.04 12.6,9.77l-10.34 16.55 -23.36 13.98 -58 32c-26.3,14.8 -26.6,40 -26.6,41.1l0 55.34zm194.7 -258.04c16.8,0.6 28.4,-11.5 30.1,-24.4 1.7,-13.3 -6.8,-22.6 -22.8,-25 -0.1,0 -0.2,0 -0.4,-0.1 -9.9,-2 -9.1,-10.3 -8.8,-13.8 0.1,-1.2 0.2,-2.5 0.2,-4 0,-4.5 -10.3,-10 -27,-11 -31.6,-1.8 -80.6,12.6 -86,59.8 0,0 0,0.1 0,0.1 -0.5,3.9 -0.6,8.9 2,10.5 7.6,4.8 33,-5.9 47.1,-15.3 0.2,-0.2 0.5,-0.3 0.8,-0.4 5.8,-2.9 9.5,-1 11.3,0.3 5.4,4.2 3.8,11.6 1.9,20.1 -0.2,0.9 -0.4,2 -0.7,3.1 4,-2.1 9.2,-5.5 12.8,-7.9 13.1,-8.6 24.5,-16 33.2,-11.3 3.1,1.7 6.7,5.4 6.7,13.9 0,1.1 -0.1,2.3 -0.2,3.5 -0.1,0.6 -0.2,1.2 -0.2,1.9zm-3.7 -0.3c0,0 0,0 0,0 0,0 0,0 0,0zm-54.5 -10.9l0 0 0 0zm70.1 -48.8l0 0 0 0zm-52.9 169.1c-7.8,0 -15.48,-1.36 -22.76,-3.97l-9.34 14.94 31 38.93 30 -38.73 -8.35 -14.33c-6.63,2.21 -13.45,3.32 -20.15,3.36 -0.2,-0.2 -0.3,-0.2 -0.4,-0.2zm-59.62 -102.55c-1.09,6.59 -1.7,15.11 -0.08,23.95 0,0.2 0.1,0.4 0.1,0.6 4.4,44.1 34,64.1 59.8,64.1 0.1,0 0.1,0 0.2,0 5.72,-0.02 11.76,-1.05 17.69,-3.26 0.46,-0.52 0.99,-0.97 1.61,-1.34 1.12,-0.65 2.36,-0.95 3.59,-0.93 16.52,-8.31 31.19,-26.66 34.21,-59.47 0.59,-6.56 0.45,-12.79 -0.03,-18.94 -4.63,1.69 -9.75,2.64 -15.27,2.64 -1.8,0 -3.6,-0.1 -5.4,-0.3 -2.7,-0.1 -5.2,-1.2 -6.9,-3.1 -3.6,-3.9 -3.1,-9.5 -2.7,-13.5 0.1,-0.9 0.2,-1.8 0.2,-2.3 0,-0.5 0,-0.9 0,-1.2 -4.1,1.1 -12.8,6.7 -18.2,10.3 -11.2,7.3 -18.9,12.1 -25.5,12.1 -1,0 -2.1,-0.1 -3.1,-0.4 -0.2,0 -0.3,-0.1 -0.5,-0.2 -2.6,-0.9 -6.9,-3.6 -6.2,-11.9 0.2,-2.9 1,-6.4 1.7,-9.7 0.1,-0.3 0.1,-0.6 0.2,-0.9 -8.33,4.67 -22.43,11.73 -35.42,13.75z"/>
 </g>
</svg>
