<?xml version="1.0" standalone="no"?>
<!DOCTYPE svg PUBLIC "-//W3C//DTD SVG 20010904//EN"
 "http://www.w3.org/TR/2001/REC-SVG-20010904/DTD/svg10.dtd">
<svg version="1.0" xmlns="http://www.w3.org/2000/svg"
 width="800.000000pt" height="600.000000pt" viewBox="0 0 800.000000 600.000000"
 preserveAspectRatio="xMidYMid meet">
<metadata>
Created by potrace 1.16, written by Peter Selinger 2001-2019
</metadata>
<g transform="translate(0.000000,600.000000) scale(0.100000,-0.100000)"
fill="#000000" stroke="none">
<path d="M3294 3867 c-44 -40 -72 -124 -48 -143 8 -6 14 -29 14 -53 0 -56 34
-148 67 -183 38 -39 86 -53 134 -39 48 14 69 44 69 96 0 28 -3 36 -9 25 -8
-12 -14 -9 -37 13 -33 33 -64 34 -101 4 -15 -13 -35 -22 -43 -20 -26 6 -64 86
-56 116 8 35 18 34 60 -8 20 -19 38 -35 41 -35 17 0 46 24 59 47 l14 27 15
-37 c9 -21 23 -37 32 -37 26 0 55 19 55 36 0 12 -5 10 -19 -7 -16 -20 -23 -22
-38 -13 -10 7 -18 23 -18 39 0 16 8 32 18 39 15 9 22 7 38 -13 23 -28 25 -10
3 24 -9 14 -24 25 -33 24 -12 0 -11 -2 4 -9 16 -7 17 -9 3 -9 -9 -1 -23 -7
-30 -14 -24 -24 -44 -26 -56 -6 -17 27 -66 25 -85 -3 -12 -19 -19 -21 -33 -12
-11 6 -23 26 -28 44 -8 28 -7 35 13 51 32 26 89 35 125 19 33 -14 91 -18 103
-7 9 9 -26 46 -59 63 -15 8 -52 14 -83 14 -49 0 -60 -4 -91 -33z"/>
<path d="M5271 3833 c-13 -3 -40 -15 -60 -27 -20 -13 -57 -35 -83 -50 -27 -15
-48 -34 -48 -42 0 -8 5 -12 10 -9 6 3 10 -3 10 -13 0 -11 8 -29 18 -40 20 -24
69 -42 57 -21 -6 9 -3 10 11 5 41 -17 55 -18 79 -2 28 18 39 21 30 6 -10 -16
21 -11 35 5 11 13 10 15 -6 9 -18 -5 -18 -5 -1 6 11 7 45 14 78 17 66 6 72 17
53 101 -8 37 -115 69 -183 55z"/>
<path d="M3882 3719 c-13 -5 -35 -18 -49 -29 -14 -11 -38 -20 -54 -20 -68 0
-89 -89 -49 -205 28 -82 27 -139 -5 -171 -14 -14 -25 -28 -25 -31 0 -7 118 4
132 13 6 4 21 31 34 61 18 41 22 59 14 73 -17 32 -12 50 13 50 24 0 49 22 60
52 3 9 25 25 49 36 24 10 49 26 57 35 18 23 31 21 31 -3 0 -11 4 -20 8 -20 5
0 6 -15 4 -32 -5 -30 -4 -32 13 -18 29 24 38 61 25 105 -18 61 -24 68 -71 92
-47 24 -142 30 -187 12z"/>
<path d="M1261 3521 c-29 -10 -65 -30 -79 -44 -35 -35 -41 -113 -17 -218 l18
-79 41 0 c67 0 123 22 155 60 16 19 55 56 88 82 47 37 63 44 73 35 9 -10 11
-3 8 31 -2 24 1 42 7 42 5 1 0 9 -12 19 -12 10 -19 21 -16 25 4 3 -1 6 -9 6
-9 0 -40 11 -69 24 -78 35 -124 39 -188 17z"/>
<path d="M1918 3283 l-88 -4 0 -293 0 -293 197 -6 c108 -4 328 -7 489 -7 l292
0 -6 -22 c-3 -14 -2 -19 6 -14 7 4 12 15 13 24 0 11 2 12 6 4 7 -18 -16 -42
-41 -42 -17 0 -18 -2 -6 -10 13 -9 13 -10 0 -10 -13 0 -13 -1 0 -10 10 -6 -10
-10 -65 -13 l-80 -3 83 -2 c76 -2 84 0 89 18 6 23 11 24 83 10 39 -7 57 -7 67
2 12 10 12 13 -4 21 -9 6 -31 13 -48 17 -16 3 -30 11 -29 18 1 7 2 36 3 65 1
44 4 53 20 53 10 0 18 -7 17 -15 -1 -7 5 -16 13 -19 9 -3 11 0 6 8 -5 9 -4 11
4 6 6 -4 9 -11 6 -16 -3 -5 26 -40 65 -77 l70 -68 -15 -90 -15 -90 27 -22 c26
-21 26 -22 8 -29 -22 -8 -45 -35 -39 -45 2 -3 -94 -6 -214 -5 l-217 1 -3 27
-3 27 -147 -4 c-81 -2 -214 -5 -297 -6 -130 -2 -140 -3 -70 -9 72 -6 75 -7 30
-10 -27 -2 -58 -4 -67 -3 -10 0 -18 -4 -18 -9 0 -4 74 -8 164 -8 106 0 167 -4
171 -11 4 -5 33 -277 66 -602 32 -326 61 -606 64 -624 6 -36 22 -50 37 -35 11
11 8 85 -37 817 -12 209 -20 383 -16 388 4 4 128 6 276 5 l269 -3 20 -195 c19
-191 19 -203 2 -550 -12 -238 -23 -373 -33 -409 -20 -69 -8 -92 63 -126 57
-27 129 -33 183 -14 48 17 41 37 -35 95 -34 26 -34 27 -33 108 1 118 153 1019
162 956 5 -39 24 -581 32 -950 l3 -115 33 -13 c18 -7 46 -11 63 -8 17 3 53 -1
80 -9 56 -17 182 -20 220 -5 18 6 26 17 26 32 0 19 -10 27 -48 41 -27 9 -83
32 -125 52 l-77 35 6 612 7 613 23 26 c23 24 24 28 14 105 l-10 80 60 149 c36
90 60 163 59 184 0 29 -2 32 -9 16 l-9 -20 -1 20 c-2 17 -3 16 -10 -5 -7 -21
-8 -22 -9 -5 -1 16 -8 20 -33 20 -40 0 -57 -19 -58 -62 0 -17 -5 -44 -12 -60
-9 -24 -12 -25 -16 -9 -3 15 -6 16 -13 5 -7 -11 -11 -11 -17 -1 -17 26 -31
-34 -37 -160 -7 -122 -8 -128 -29 -129 -11 -1 -45 -3 -74 -5 l-54 -3 6 37 c7
50 16 452 10 429 -3 -9 -10 -14 -16 -11 -7 5 -8 -2 -3 -22 4 -16 8 -51 9 -79
l1 -50 -37 -3 c-21 -2 -38 -7 -38 -13 0 -5 -20 -9 -45 -9 -25 0 -45 5 -45 10
0 6 -10 10 -22 10 -19 0 -20 2 -8 10 12 8 9 10 -12 10 -15 0 -32 8 -37 18 -6
9 -11 12 -11 5 0 -6 4 -14 8 -17 5 -3 6 -22 3 -43 -5 -27 -14 -42 -36 -55 -28
-16 -34 -16 -59 -3 -33 17 -56 19 -56 5 0 -5 -5 -10 -11 -10 -5 0 -8 4 -5 8 3
5 -9 8 -25 7 -22 -1 -43 8 -72 33 -23 19 -43 38 -45 43 -5 12 36 135 60 180
15 30 18 54 16 135 l-3 99 -42 3 -43 3 0 -87 c0 -81 -1 -86 -20 -81 -11 3 -17
1 -14 -4 3 -5 3 -18 -1 -29 -5 -16 -17 -20 -72 -22 -42 -2 -68 -8 -71 -15 -2
-9 9 -13 37 -13 23 0 41 -2 41 -4 0 -14 -92 -96 -108 -96 -17 0 -20 10 -26 90
-7 89 -18 110 -36 68 -5 -13 -9 -17 -9 -10 -1 21 -21 3 -21 -20 0 -11 -8 -22
-18 -24 -9 -3 -25 -19 -34 -35 -11 -19 -24 -29 -35 -27 -11 2 -17 -2 -15 -10
1 -8 -2 -11 -8 -7 -5 3 -13 -1 -16 -9 -3 -9 -11 -16 -18 -16 -13 0 -34 -41
-28 -58 2 -7 8 -10 13 -6 5 3 9 1 9 -4 0 -5 -25 -7 -55 -4 -49 4 -55 2 -55
-14 0 -16 2 -17 10 -4 7 11 12 12 18 3 4 -6 29 -13 56 -15 43 -3 50 -6 51 -25
2 -25 -3 -27 -52 -24 -24 1 -33 -3 -33 -14 0 -14 -22 -20 -63 -15 -11 1 -21
-7 -24 -19 -4 -17 -9 -19 -25 -10 -14 8 -23 8 -31 0 -24 -24 -37 -11 -37 38 0
30 -5 51 -12 54 -9 4 -10 6 -1 6 8 1 9 10 3 30 -6 21 -5 31 3 35 7 2 2 5 -11
5 -19 1 -21 -2 -13 -17 8 -16 4 -17 -42 -16 -34 1 -45 -1 -32 -6 19 -7 18 -8
-5 -12 -14 -3 -2 -6 28 -7 48 -1 52 -3 52 -26 0 -25 -9 -29 -72 -28 -10 0 -18
-6 -18 -14 0 -9 -17 -13 -59 -13 -54 0 -60 -2 -56 -20 2 -11 0 -20 -6 -20 -5
0 -10 89 -10 218 -1 119 -2 242 -3 272 l-1 55 120 3 c125 4 443 -9 413 -15
-28 -7 -21 -31 10 -37 15 -3 58 -7 96 -8 l70 -3 2 43 2 42 -276 -2 c-153 -1
-316 -4 -364 -5z"/>
<path d="M4363 3122 l-122 -3 -86 -142 c-48 -78 -99 -161 -115 -184 -28 -41
-28 -44 -36 -237 -4 -108 -11 -199 -16 -202 -5 -3 -40 -6 -78 -5 -38 0 -71 -3
-74 -7 -2 -4 28 -7 67 -5 47 1 74 -2 79 -10 5 -8 8 -6 8 6 0 9 8 17 18 18 9 1
37 2 62 3 25 2 56 6 70 10 19 6 22 5 10 -3 -13 -9 -11 -11 7 -11 12 0 25 -4
28 -10 3 -5 12 -10 18 -9 9 0 9 2 0 6 -7 2 -13 9 -13 14 0 6 5 7 11 3 7 -4 10
-1 7 6 -2 7 -25 19 -51 27 l-47 14 0 133 c0 73 -3 148 -6 165 l-6 31 79 0 c85
0 94 5 136 72 16 25 15 26 -8 32 -29 7 -34 26 -7 27 13 0 12 2 -5 9 -25 10
-30 42 -10 57 6 6 30 13 52 17 22 4 47 9 57 12 13 4 60 75 105 156 6 12 -10
13 -134 10z"/>
<path d="M764 2620 c-200 -4 -224 -7 -243 -24 -30 -28 -28 -65 29 -392 69
-402 68 -395 92 -421 l22 -23 -24 -350 c-13 -192 -21 -353 -17 -357 4 -3 11
-2 16 3 5 5 25 149 46 319 20 171 39 327 42 348 l6 37 178 0 c98 0 180 -3 182
-7 3 -5 -4 -158 -15 -340 -11 -183 -18 -340 -14 -348 3 -8 14 -15 25 -15 21 0
23 7 42 175 7 60 14 104 17 96 2 -7 12 -70 21 -139 11 -88 20 -127 30 -130 15
-5 15 6 -10 378 -9 125 -10 208 -3 255 l9 70 182 3 182 2 3 -282 c2 -202 0
-290 -9 -309 -6 -14 -13 -39 -15 -55 -3 -28 -2 -29 46 -30 34 0 51 -5 58 -17
11 -21 38 -22 38 -2 0 14 22 15 178 10 97 -3 198 -8 225 -9 26 -2 47 -2 47 1
0 17 -26 45 -53 57 -18 8 -47 27 -65 44 -28 24 -32 32 -23 48 8 15 61 767 61
863 0 17 -4 22 -16 17 -8 -3 -13 -2 -10 3 9 13 -19 21 -35 9 -11 -8 -11 -9 2
-5 9 3 16 -1 16 -8 0 -10 -5 -11 -18 -4 -22 11 -42 12 -35 0 3 -5 0 -14 -8
-20 -7 -6 -11 -22 -8 -36 2 -15 0 -25 -7 -25 -6 0 -11 9 -11 19 0 11 -5 23
-11 26 -6 4 -9 1 -7 -7 1 -7 -7 -30 -19 -51 -18 -30 -28 -37 -52 -37 -29 0
-30 -2 -21 -26 12 -30 13 -43 2 -28 -5 8 -27 6 -75 -6 -45 -11 -66 -13 -64 -6
7 17 -5 18 -249 22 l-221 5 -11 67 c-23 142 -93 529 -102 563 -12 43 -35 65
-75 71 -16 2 -130 1 -251 -2z m1071 -1207 c9 -194 9 -244 -2 -270 -13 -31 -13
-31 -43 -17 -16 9 -30 16 -30 17 0 1 11 112 25 247 14 135 25 251 25 259 0 8
3 11 7 8 3 -4 11 -114 18 -244z"/>
<path d="M5775 2593 c-98 -41 -203 -64 -320 -69 -60 -2 -109 -6 -108 -9 1 -3
3 -11 5 -17 3 -8 40 -14 105 -16 l101 -4 -4 -149 c-3 -91 -1 -149 5 -149 5 0
9 -9 8 -19 -1 -16 -4 -17 -15 -9 -20 17 -37 -4 -23 -30 14 -26 14 -35 1 -27
-6 4 -7 -1 -3 -11 4 -12 3 -15 -5 -10 -8 4 -10 2 -6 -7 3 -8 1 -18 -5 -22 -6
-3 -11 -11 -11 -18 0 -6 16 12 35 41 20 28 39 52 43 52 9 0 95 -884 97 -1005
l2 -90 44 -13 c24 -7 58 -10 74 -6 47 9 115 53 115 73 0 19 -29 51 -47 51 -31
0 -34 54 -24 585 5 292 13 541 19 555 17 45 22 144 11 205 -6 33 -13 79 -16
103 -3 23 -8 42 -12 41 -3 0 -33 -12 -66 -26z"/>
<path d="M6170 2562 c0 -16 51 -102 60 -102 5 0 12 5 15 10 9 15 45 12 45 -4
0 -8 6 -16 14 -19 8 -3 19 -22 26 -42 10 -31 10 -39 -6 -56 -17 -19 -16 -19
35 -19 50 0 52 1 45 23 -3 12 -32 65 -63 117 l-56 95 -58 3 c-31 2 -57 -1 -57
-6z"/>
<path d="M7259 2500 c-20 -19 -39 -43 -42 -52 -4 -10 -11 -18 -16 -18 -20 0
-19 -53 3 -210 25 -178 23 -195 -22 -207 -33 -8 -511 41 -538 55 -27 15 -170
31 -201 23 -58 -16 -63 -32 -99 -392 -18 -184 -33 -339 -34 -346 0 -15 62 -33
113 -33 l37 0 0 59 c0 66 64 360 76 349 2 -3 15 -96 29 -208 16 -124 30 -207
38 -212 15 -10 118 -10 133 0 8 4 16 82 23 212 10 181 10 211 -4 258 -9 30
-15 56 -12 58 2 2 46 -12 98 -31 l94 -35 216 0 217 0 17 43 c9 23 21 66 26 96
16 98 -24 379 -76 531 -35 101 -34 101 -76 60z"/>
<path d="M1396 2304 c-3 -9 -6 -20 -6 -25 0 -5 87 -10 193 -11 l192 -3 -3 -60
-4 -60 46 0 45 0 6 55 c3 30 8 70 11 88 l5 32 -239 0 c-210 0 -241 -2 -246
-16z"/>
<path d="M7270 1427 c0 -4 7 -19 16 -32 9 -13 12 -30 8 -36 -4 -7 -7 -33 -5
-58 2 -50 29 -85 58 -74 12 5 15 2 10 -10 -7 -18 8 -24 16 -7 3 6 4 5 3 -2 -1
-7 -16 -20 -34 -28 -33 -16 -42 -30 -19 -30 25 0 45 -35 48 -83 2 -31 -1 -51
-10 -56 -18 -12 37 -21 125 -21 52 0 74 4 75 13 0 6 7 48 14 92 8 44 16 90 18
102 3 13 -2 24 -11 28 -8 3 -12 8 -9 11 3 3 1 18 -4 32 -8 21 -6 31 10 53 12
16 19 35 16 43 -17 53 -16 51 -25 36 -8 -13 -10 -12 -10 3 0 17 -1 17 -25 0
-13 -10 -22 -24 -20 -31 3 -7 1 -10 -4 -7 -20 11 -23 -18 -6 -60 12 -33 14
-49 6 -62 -6 -10 -11 -12 -11 -5 0 6 -6 12 -14 12 -8 0 -17 -6 -19 -12 -4 -9
-8 -10 -14 -3 -4 6 -18 12 -31 12 -12 1 -29 9 -38 17 -16 16 -49 112 -46 132
2 13 -27 28 -36 19 -3 -3 0 -5 6 -5 7 0 12 -10 12 -22 0 -19 -3 -18 -25 12
-14 19 -25 31 -25 27z"/>
<path d="M5217 1185 c-37 -30 -66 -44 -95 -49 -59 -8 -82 -22 -82 -51 0 -27
22 -36 159 -60 126 -22 213 -28 244 -16 24 9 27 15 27 60 0 49 -35 161 -51
161 -4 0 -19 -4 -33 -10 -16 -6 -44 -6 -71 -1 -44 8 -48 7 -98 -34z"/>
<path d="M6280 1142 c0 -5 5 -13 12 -20 6 -6 8 -15 3 -19 -4 -5 -10 -2 -12 5
-3 6 -9 12 -14 12 -4 0 -6 -7 -3 -15 7 -18 -7 -20 -25 -2 -11 10 -12 9 -3 -7
10 -20 -5 -46 -27 -46 -15 0 -14 -15 2 -28 9 -8 36 -5 95 10 88 22 92 27 72
84 -9 26 -16 29 -55 31 -25 1 -45 -1 -45 -5z"/>
<path d="M6735 1091 c-9 -31 -40 -34 -86 -11 -36 19 -41 20 -35 5 8 -22 -4
-42 -15 -24 -7 11 -9 10 -9 -5 0 -16 -2 -17 -17 -5 -12 10 -15 10 -9 1 5 -8
-1 -19 -14 -30 -20 -16 -21 -21 -9 -40 12 -18 23 -22 70 -22 30 0 81 5 112 11
54 11 57 14 57 41 0 28 -24 98 -34 98 -2 0 -7 -9 -11 -19z"/>
</g>
</svg>
