<?xml version="1.0" encoding="iso-8859-1"?>
<!-- Generator: Adobe Illustrator 19.0.0, SVG Export Plug-In . SVG Version: 6.00 Build 0)  -->
<svg version="1.1" xmlns="http://www.w3.org/2000/svg" xmlns:xlink="http://www.w3.org/1999/xlink" x="0px" y="0px"
	 viewBox="0 0 512 512" style="enable-background:new 0 0 512 512;" xml:space="preserve">
<g id="_x31_552_x2C__Geography_x2C__Geology_x2C__Scientific_Study_Of_The_Origin_Of_The_Earth_x2C__Study_Of_Earth_Surface">
	<g>
		<path id="XMLID_75901_" style="fill:#A7C7FC;" d="M405.68,326.08c0.21,3.28,0.32,6.59,0.32,9.92c0,49.07-23.57,92.64-60,120
			l-20-50l30-10l-10-40h20v-20L405.68,326.08z"/>
		<path id="XMLID_75902_" style="fill:#A7C7FC;" d="M296,426l-20,20v38.67c-5.55,0.74-11.18,1.17-16.9,1.29
			c-1.029,0.03-2.06,0.04-3.1,0.04c-1.04,0-2.07-0.01-3.1-0.04c-63.79-1.29-117.81-42.4-138.2-99.5L116,386l70-40l20,30h40v50H296z"
			/>
		<polygon id="XMLID_75903_" style="fill:#A7C7FC;" points="326,246 336,286 316,306 336,326 296,336 266,296 246,306 236,336 
			196,306 196,266 236,266 246,236 286,256 		"/>
		<polygon id="XMLID_75907_" style="fill:#A7C7FC;" points="326,26 326,86 296,86 216,86 186,86 186,26 		"/>
		<rect id="XMLID_75908_" x="436" y="416" style="fill:#4D80C9;" width="20" height="20"/>
		<rect id="XMLID_75909_" x="436" y="376" style="fill:#4D80C9;" width="20" height="20"/>
		<rect id="XMLID_75910_" x="436" y="336" style="fill:#4D80C9;" width="20" height="20"/>
		<rect id="XMLID_75911_" x="56" y="416" style="fill:#4D80C9;" width="20" height="20"/>
		<rect id="XMLID_75912_" x="56" y="376" style="fill:#4D80C9;" width="20" height="20"/>
		<rect id="XMLID_75913_" x="56" y="336" style="fill:#4D80C9;" width="20" height="20"/>
		<path id="XMLID_75914_" style="fill:#4D80C9;" d="M486,496H26c-5.523,0-10-4.478-10-10s4.477-10,10-10h460c5.522,0,10,4.478,10,10
			S491.522,496,486,496z"/>
		<path id="XMLID_75915_" style="fill:#4D80C9;" d="M256,496c-1.139,0-2.266-0.011-3.394-0.044
			c-32.905-0.665-64.399-11.298-90.986-30.746c-26.05-19.057-45.532-45.125-56.338-75.387C99.123,372.571,96,354.463,96,336
			c0-69.169,44.861-130.611,110-152.022V96h-20c-5.523,0-10-4.477-10-10V26c0-5.523,4.477-10,10-10h140c5.522,0,10,4.477,10,10v60
			c0,5.523-4.478,10-10,10h-20v87.976c61.697,20.247,105.394,76.17,109.658,141.452C415.886,328.974,416,332.525,416,336
			c0,25.592-5.865,50.049-17.434,72.691c-11.029,21.587-27.13,40.711-46.561,55.305c-21.82,16.406-47.647,26.983-74.684,30.586
			c-5.888,0.785-11.948,1.248-18.012,1.376C258.267,495.989,257.139,496,256,496z M196,76h20c5.523,0,10,4.477,10,10v105.4
			c0,4.498-3.003,8.442-7.338,9.639C158.216,217.728,116,273.227,116,336c0,16.165,2.731,32.011,8.118,47.098
			c19.418,54.377,71.252,91.697,128.984,92.864c2.048,0.059,3.84,0.057,5.704,0.002c5.406-0.113,10.718-0.519,15.872-1.206
			c23.642-3.15,46.226-12.4,65.313-26.751C375.587,421.272,396,380.449,396,336c0-3.05-0.101-6.173-0.3-9.281
			c-3.877-59.339-45.013-109.851-102.361-125.679c-4.336-1.197-7.339-5.142-7.339-9.64V86c0-5.523,4.477-10,10-10h20V36H196V76z"/>
		<path id="XMLID_75918_" style="fill:#4D80C9;" d="M276,496c-5.523,0-10-4.478-10-10v-40c0-2.652,1.054-5.195,2.929-7.071
			l2.929-2.929H246c-5.523,0-10-4.478-10-10v-40h-30c-3.344,0-6.466-1.671-8.32-4.453l-14.823-22.233l-61.895,35.369
			c-4.793,2.741-10.903,1.074-13.644-3.722c-2.74-4.795-1.074-10.903,3.721-13.643l70-40c4.563-2.607,10.366-1.237,13.282,3.136
			L211.352,366H246c5.523,0,10,4.478,10,10v40h40c4.045,0,7.691,2.436,9.239,6.173c1.547,3.737,0.691,8.038-2.168,10.898
			L286,450.143V486C286,491.522,281.522,496,276,496z"/>
		<path id="XMLID_75919_" style="fill:#4D80C9;" d="M346.003,466.003c-3.969,0-7.724-2.379-9.288-6.289l-20-50
			c-1.022-2.557-0.945-5.423,0.213-7.921c1.159-2.499,3.297-4.409,5.91-5.28l21.215-7.071l-7.754-31.016
			c-0.747-2.988-0.076-6.152,1.819-8.58c1.895-2.427,4.803-3.846,7.882-3.846h10v-10c0-4.589,3.123-8.589,7.574-9.701l40-10
			c5.358-1.346,10.788,1.917,12.127,7.275c1.34,5.358-1.918,10.788-7.275,12.127L376,343.808V356c0,5.522-4.478,10-10,10h-7.192
			l6.894,27.574c1.268,5.069-1.582,10.26-6.539,11.913l-19.938,6.646l16.062,40.153c2.051,5.128-0.443,10.947-5.571,12.999
			C348.496,465.772,347.239,466.003,346.003,466.003z"/>
		<path id="XMLID_75920_" style="fill:#4D80C9;" d="M296,346c-3.102,0-6.084-1.445-8-4l-24.992-33.323l-8.831,4.415l-8.69,26.07
			c-1.017,3.05-3.437,5.425-6.505,6.383c-3.067,0.96-6.41,0.384-8.981-1.545l-40-30c-2.518-1.889-4-4.853-4-8v-40
			c0-5.522,4.477-10,10-10h32.792l7.721-23.162c0.916-2.751,2.982-4.967,5.66-6.077c2.677-1.109,5.706-1.002,8.299,0.294
			l36.691,18.346l36.411-9.103c5.358-1.339,10.788,1.918,12.127,7.276l10,39.999c0.852,3.408-0.147,7.013-2.63,9.497L330.143,306
			l12.929,12.929c2.547,2.548,3.527,6.269,2.565,9.74c-0.961,3.473-3.716,6.158-7.211,7.032l-40,10
			C297.62,345.902,296.806,346,296,346z M265.995,285.999c3.066,0,6.063,1.411,8.005,4.001l26.017,34.689l16.424-4.107l-7.512-7.511
			c-3.905-3.905-3.905-10.237,0-14.143l15.997-15.996l-6.202-24.806l-30.298,7.574c-2.317,0.579-4.763,0.31-6.897-0.757
			l-29.688-14.844l-6.354,19.062C244.125,273.246,240.304,276,236,276h-30v25l24.9,18.676l5.613-16.838
			c0.839-2.517,2.643-4.596,5.015-5.782l20-10C262.955,286.342,264.483,285.999,265.995,285.999z"/>
		<path id="XMLID_75923_" style="fill:#4D80C9;" d="M296,96h-80c-5.523,0-10-4.477-10-10s4.477-10,10-10h80c5.522,0,10,4.477,10,10
			S301.522,96,296,96z"/>
		<path id="XMLID_75924_" style="fill:#4D80C9;" d="M116,186c-22.056,0-40-17.944-40-40s17.944-40,40-40s40,17.944,40,40
			S138.056,186,116,186z M116,126c-11.028,0-20,8.972-20,20s8.972,20,20,20s20-8.972,20-20S127.028,126,116,126z"/>
		<path id="XMLID_75927_" style="fill:#4D80C9;" d="M416,216c-22.056,0-40-17.944-40-40s17.944-40,40-40c22.056,0,40,17.944,40,40
			S438.056,216,416,216z M416,156c-11.028,0-20,8.972-20,20s8.972,20,20,20c11.028,0,20-8.972,20-20S427.028,156,416,156z"/>
	</g>
</g>
<g id="Layer_1">
</g>
</svg>
